<?xml version="1.0" encoding="utf-8"?>
<!-- Generator: Adobe Illustrator 27.5.0, SVG Export Plug-In . SVG Version: 6.00 Build 0)  -->
<svg xmlns="http://www.w3.org/2000/svg" xmlns:xlink="http://www.w3.org/1999/xlink" version="1.1" id="Layer_1" x="0px" y="0px" viewBox="0 0 450 450" style="enable-;background-color:transparent;" xml:space="preserve">
<g>
	<rect style="fill:none;" width="450" height="450" fill="none"/>
	<g>
		<path style="fill:none;" d="M99.018,80.399l-5.53,3.193v-4.424l15.633-9.026v4.424l-5.53,3.193v18.836l-4.573,2.64V80.399z"/>
		<path style="fill:none;" d="M112.273,68.322l4.541-2.622v8.954l6.952-4.014v-8.954l4.572-2.64v23.26l-4.572,2.64v-9.703    l-6.952,4.014v9.703l-4.541,2.622V68.322z"/>
		<path style="fill:none;" d="M133.098,56.299l12.605-7.278v4.424l-8.064,4.656v4.673l6.859-3.96v4.388l-6.859,3.96v5.352    l8.373-4.834v4.424l-12.914,7.456V56.299z"/>
		<path style="fill:none;" d="M47.607,148.469l4.542-2.622v8.954l6.952-4.014v-8.954l4.572-2.64v23.26l-4.572,2.64v-9.704    l-6.952,4.014v9.704l-4.542,2.622V148.469z"/>
		<path style="fill:none;" d="M72.169,134.288l5.468-3.157l6.304,19.621l-4.82,2.783l-1.237-4.815l-6.148,3.549l-1.236,6.243    l-4.634,2.675L72.169,134.288z M72.664,147.63l4.295-2.479l-0.464-1.873c-0.556-1.998-1.113-4.424-1.638-6.546l-0.123,0.071    c-0.494,2.747-1.02,5.761-1.576,8.402L72.664,147.63z"/>
		<path style="fill:none;" d="M86.135,126.225l4.665-2.693l5.252,8.526l1.977,3.995l0.125-0.072    c-0.186-2.354-0.557-5.422-0.557-8.169v-8.205l4.325-2.497v23.26l-4.665,2.693l-5.252-8.563l-1.978-3.924l-0.124,0.071    c0.186,2.462,0.556,5.351,0.556,8.098v8.241l-4.325,2.497V126.225z"/>
		<path style="fill:none;" d="M106.681,114.362l5.685-3.282c6.147-3.549,10.103-2.301,10.103,5.69s-3.955,14.021-9.855,17.427    l-5.932,3.425V114.362z M112.088,130.255c3.43-1.98,5.715-5.227,5.715-10.792c0-5.565-2.286-5.958-5.715-3.978l-0.865,0.5v14.77    L112.088,130.255z"/>
		<path style="fill:none;" d="M129.143,116.377l-6.086-11.47l4.881-2.818l1.793,4.316c0.556,1.427,1.08,2.73,1.637,4.192    l0.124-0.071c0.587-2.123,1.143-4.049,1.699-6.119l1.822-6.403l4.758-2.747l-6.086,18.497v8.276l-4.542,2.622V116.377z"/>
		<path style="fill:none;" d="M141.903,94.027l4.974-2.872l3.245,8.473c0.401,1.124,0.773,2.407,1.174,3.603l0.124-0.072    c0.401-1.658,0.741-3.353,1.143-4.94l3.183-12.183l4.943-2.854v23.26l-4.14,2.39v-8.526c0-2.283,0.37-5.886,0.587-8.259    l-0.124,0.071l-1.637,6.475l-2.874,10.543l-2.503,1.445l-2.873-7.225l-1.607-4.602l-0.124,0.071    c0.217,2.123,0.587,5.298,0.587,7.581v8.526l-4.078,2.354V94.027z"/>
		<path style="fill:none;" d="M169.185,78.276l5.469-3.157l6.303,19.621l-4.82,2.783l-1.237-4.816l-6.147,3.549l-1.236,6.243    l-4.634,2.675L169.185,78.276z M169.68,91.618l4.295-2.479l-0.463-1.873c-0.557-1.998-1.113-4.424-1.638-6.546l-0.124,0.071    c-0.494,2.747-1.019,5.761-1.576,8.402L169.68,91.618z"/>
		<path style="fill:none;" d="M183.151,70.213l4.665-2.693l5.252,8.526l1.977,3.995l0.124-0.072    c-0.186-2.354-0.557-5.422-0.557-8.169v-8.205l4.325-2.497v23.26l-4.665,2.693l-5.252-8.563l-1.977-3.924l-0.124,0.071    c0.186,2.462,0.556,5.351,0.556,8.098v8.241l-4.325,2.497V70.213z"/>
	</g>
	<g>
		<g>
			<g style="opacity:0.3;">
				<path d="M369.003,289.759c-1.166-0.676-3.129-0.674-4.286,0c-0.675,0.394-1.046,0.944-1.046,1.553      c0,0.607,0.371,1.159,1.048,1.552c0.578,0.335,1.339,0.52,2.138,0.52c0.802,0,1.56-0.185,2.14-0.52      c0.676-0.387,1.05-0.937,1.052-1.547C370.051,290.706,369.68,290.153,369.003,289.759z M368.443,291.905      c-0.816,0.47-2.358,0.469-3.169,0c-0.31-0.18-0.495-0.402-0.495-0.594c0-0.192,0.185-0.415,0.495-0.595      c0.407-0.237,0.984-0.374,1.583-0.374c0.601,0,1.181,0.137,1.59,0.374c0.31,0.18,0.494,0.403,0.494,0.596      C368.94,291.505,368.756,291.726,368.443,291.905z"/>
				<path d="M413.199,274.941c-4.69-2.707-10.914-4.198-17.522-4.198c-6.611,0-12.836,1.491-17.527,4.198      c-1.251,0.722-2.346,1.511-3.294,2.35c-2.48-0.474-5.096-0.733-7.781-0.733c-6.612,0-12.837,1.491-17.527,4.198      c-4.787,2.764-7.424,6.468-7.427,10.433c-0.001,3.964,2.632,7.671,7.415,10.438c4.694,2.708,10.921,4.199,17.531,4.199      c6.61,0,12.831-1.491,17.52-4.199c1.25-0.722,2.346-1.51,3.295-2.348c2.484,0.475,5.102,0.733,7.787,0.733      c6.612,0,12.832-1.492,17.52-4.199c4.791-2.761,7.43-6.466,7.431-10.433C420.62,281.413,417.986,277.706,413.199,274.941z       M384.032,300.666c-4.522,2.612-10.548,4.053-16.966,4.053c-6.42,0-12.45-1.441-16.977-4.052      c-4.426-2.56-6.862-5.926-6.86-9.478c0.002-3.553,2.441-6.917,6.871-9.474c4.526-2.611,10.554-4.049,16.975-4.049      c2.34,0,4.626,0.195,6.809,0.565c-2.052,2.154-3.157,4.594-3.158,7.142c-0.003,3.965,2.631,7.672,7.412,10.44      c2.426,1.397,5.263,2.465,8.348,3.178C385.745,299.576,384.941,300.143,384.032,300.666z"/>
			</g>
			<g>
				<g>
					<path style="fill:#121212;" d="M384.302,281.231c-9.515-5.495-24.955-5.495-34.49,0c-9.518,5.5-9.518,14.415,0,19.917       c9.535,5.495,24.976,5.507,34.497,0.004C393.843,295.647,393.833,286.731,384.302,281.231z M368.72,291.43       c-1.026,0.593-2.698,0.593-3.725,0c-1.025-0.598-1.025-1.549,0-2.146c1.026-0.598,2.698-0.598,3.73,0       C369.751,289.881,369.751,290.838,368.72,291.43z"/>
					<path style="fill:#121212;" d="M363.019,288.033v4.519h8.087l-0.4-4.519H363.019z M368.72,292.213       c-1.026,0.594-2.698,0.594-3.725,0c-1.025-0.598-1.025-1.547,0-2.145c1.026-0.599,2.698-0.599,3.73,0       C369.751,290.666,369.751,291.623,368.72,292.213z"/>
					<path style="fill:#262626;" d="M384.32,280.281c-9.533-5.502-24.974-5.497-34.498,0c-9.528,5.501-9.528,14.403-0.011,19.91       c9.535,5.501,24.976,5.501,34.497,0C393.843,294.695,393.843,285.782,384.32,280.281z M368.72,291.43       c-1.026,0.593-2.698,0.593-3.725,0c-1.025-0.598-1.025-1.549,0-2.146c1.026-0.598,2.698-0.598,3.73,0       C369.751,289.881,369.751,290.838,368.72,291.43z"/>
					<path style="fill:#A6A6A6;" d="M378.262,283.781c-6.188-3.571-16.21-3.571-22.388,0c-6.181,3.555-6.181,9.349,0,12.915       c6.178,3.565,16.2,3.565,22.382,0C384.443,293.124,384.438,287.336,378.262,283.781z M368.72,291.43       c-1.026,0.593-2.698,0.593-3.725,0c-1.025-0.598-1.025-1.549,0-2.146c1.026-0.598,2.698-0.598,3.73,0       C369.751,289.881,369.751,290.838,368.72,291.43z"/>
					<path style="fill:#828282;" d="M372.501,287.096c-3.119-1.795-8.169-1.801-11.283,0c-3.107,1.801-3.107,4.727,0,6.511       c3.114,1.805,8.164,1.812,11.274,0C375.61,291.822,375.61,288.897,372.501,287.096z M368.72,291.43       c-1.026,0.593-2.698,0.593-3.725,0c-1.025-0.598-1.025-1.549,0-2.146c1.026-0.598,2.698-0.598,3.73,0       C369.751,289.881,369.751,290.838,368.72,291.43z"/>
					<polygon style="fill:#595959;" points="364.729,292.197 364.339,293.036 362.884,293.266 361.817,292.644 362.209,291.8        363.658,291.581      "/>
					<polygon style="fill:#595959;" points="372.163,287.905 371.769,288.742 370.31,288.978 369.247,288.356 369.64,287.512        371.1,287.289      "/>
					<polygon style="fill:#595959;" points="364.477,287.916 364.092,288.76 362.633,288.989 361.558,288.362 361.951,287.529        363.405,287.289      "/>
					<polygon style="fill:#595959;" points="372.103,292.321 371.722,293.154 370.258,293.395 369.183,292.767 369.575,291.928        371.041,291.711      "/>
					<polygon style="fill:#D63A3A;" points="358.238,283.225 362.83,285.882 359.101,288.033 354.503,285.383      "/>
					<polygon style="fill:#1E9E39;" points="367.088,282.298 380.29,289.905 379.387,290.427 366.203,282.82      "/>
					<polygon style="fill:#6B6B6B;" points="370.89,282.369 381.199,288.304 379.603,289.219 369.305,283.277      "/>
					<path style="fill:#6B6B6B;" d="M355.404,294.415l4.43,2.558c1.719,0.995,4.51,0.995,6.242,0l0.022-0.018l-10.662-6.164       l-0.032,0.017C353.682,291.8,353.682,293.418,355.404,294.415z"/>
					<polygon style="fill:none;" points="375.464,292.409 379.677,294.837 374.806,297.646 370.595,295.225      "/>
					<polygon style="fill:#6B6B6B;" points="374.877,292.443 379.709,295.235 378.953,295.67 374.127,292.891      "/>
					<polygon style="fill:none;" points="353.243,286.11 357.835,288.773 358.754,288.233 354.155,285.582      "/>
					<polygon style="fill:#D63A3A;" points="374.251,293.395 377.946,295.529 375.969,296.68 372.261,294.538      "/>
				</g>
			</g>
			<g>
				<g>
					<path style="fill:#121212;" d="M414.736,275.652c-8.731-6.671-24.044-8.652-34.205-4.428       c-10.145,4.234-11.291,13.075-2.557,19.753c8.751,6.675,24.064,8.667,34.21,4.435       C422.349,291.174,423.481,282.332,414.736,275.652z M397.974,283.768c-1.095,0.456-2.753,0.241-3.694-0.479       c-0.94-0.725-0.818-1.667,0.276-2.129c1.095-0.461,2.751-0.246,3.699,0.479C399.195,282.364,399.073,283.313,397.974,283.768z"/>
					<path style="fill:#121212;" d="M392.755,279.667l-0.579,4.482l8.02,1.038l0.181-4.532L392.755,279.667z M397.871,284.545       c-1.092,0.456-2.751,0.242-3.692-0.477c-0.94-0.725-0.818-1.668,0.275-2.129c1.095-0.462,2.752-0.247,3.699,0.478       C399.094,283.143,398.973,284.091,397.871,284.545z"/>
					<path style="fill:#262626;" d="M414.876,274.714c-8.747-6.681-24.062-8.656-34.211-4.429       c-10.158,4.232-11.301,13.062-2.568,19.744c8.751,6.68,24.064,8.662,34.212,4.429       C422.469,290.231,423.614,281.392,414.876,274.714z M397.974,283.768c-1.095,0.456-2.753,0.241-3.694-0.479       c-0.94-0.725-0.818-1.667,0.276-2.129c1.095-0.461,2.751-0.246,3.699,0.479C399.195,282.364,399.073,283.313,397.974,283.768z"/>
					<path style="fill:#A6A6A6;" d="M408.418,277.408c-5.679-4.337-15.618-5.623-22.202-2.873       c-6.586,2.729-7.329,8.476-1.657,12.806c5.669,4.33,15.607,5.615,22.194,2.874       C413.349,287.467,414.086,281.726,408.418,277.408z M397.974,283.768c-1.095,0.456-2.753,0.241-3.694-0.479       c-0.94-0.725-0.818-1.667,0.276-2.129c1.095-0.461,2.751-0.246,3.699,0.479C399.195,282.364,399.073,283.313,397.974,283.768z"/>
					<path style="fill:#828282;" d="M402.28,279.955c-2.864-2.182-7.871-2.834-11.191-1.449c-3.314,1.388-3.688,4.289-0.835,6.456       c2.855,2.191,7.863,2.846,11.179,1.447C404.756,285.041,405.131,282.14,402.28,279.955z M397.974,283.768       c-1.095,0.456-2.753,0.241-3.694-0.479c-0.94-0.725-0.818-1.667,0.276-2.129c1.095-0.461,2.751-0.246,3.699,0.479       C399.195,282.364,399.073,283.313,397.974,283.768z"/>
					<polygon style="fill:#595959;" points="393.918,284.016 393.422,284.799 391.949,284.839 390.973,284.086 391.47,283.299        392.934,283.268      "/>
					<polygon style="fill:#595959;" points="401.841,280.714 401.342,281.494 399.863,281.541 398.891,280.787 399.389,280        400.865,279.967      "/>
					<polygon style="fill:#595959;" points="394.218,279.738 393.726,280.526 392.249,280.566 391.265,279.806 391.762,279.03        393.233,278.978      "/>
					<polygon style="fill:#595959;" points="401.215,285.086 400.729,285.863 399.246,285.913 398.261,285.153 398.759,284.372        400.238,284.345      "/>
					<polygon style="fill:#D63A3A;" points="388.634,274.285 392.846,277.51 388.87,279.165 384.649,275.945      "/>
					<polygon style="fill:#1E9E39;" points="397.527,274.502 409.644,283.74 408.681,284.143 396.584,274.905      "/>
					<polygon style="fill:#6B6B6B;" points="401.289,275.06 410.75,282.27 409.052,282.971 399.6,275.758      "/>
					<path style="fill:#6B6B6B;" d="M384.386,285.019l4.065,3.104c1.575,1.209,4.344,1.567,6.189,0.802l0.025-0.016l-9.783-7.482       l-0.032,0.015C383.013,282.203,382.806,283.81,384.386,285.019z"/>
					<polygon style="fill:none;" points="404.536,285.604 408.4,288.553 403.212,290.714 399.347,287.772      "/>
					<polygon style="fill:#6B6B6B;" points="403.948,285.564 408.383,288.952 407.577,289.286 403.148,285.911      "/>
					<polygon style="fill:none;" points="383.306,276.506 387.519,279.735 388.501,279.317 384.279,276.099      "/>
					<polygon style="fill:#D63A3A;" points="403.206,286.426 406.596,289.017 404.488,289.904 401.086,287.304      "/>
				</g>
			</g>
		</g>
		<g>
			<g>
				<path style="opacity:0.3;fill:#0D0D0D;" d="M323.203,271.343l-37.603-22.488c-1.649-0.972-1.676-3.358-0.048-4.382l0.082-0.057      c2.891-1.816,6.55-1.921,9.541-0.28l37.289,21.574c2.35,1.298,2.291,4.685-0.1,5.892l-0.101,0.051      C329.39,273.103,325.977,272.996,323.203,271.343z"/>
				<g>
					<path style="fill:#828282;" d="M291.244,244.436l-1.006-0.583c0,0,0,0,0.709-0.41c0.591-0.052,1.141-0.048,1.647-0.013       l-0.315,0.883L291.244,244.436z"/>
				</g>
				<polygon style="fill:#A7A9AC;" points="329.973,262.753 326.08,262.151 326.08,265.552 329.973,266.149     "/>
				<path style="fill:#939598;" d="M284.821,244.107v3.441h0.006c0.059,1.702,2.314,2.668,2.314,2.668s2.59,1.189,5.279,0.784      c0,0,1.671-0.395,4.233,1.081c0,0,20.429,11.774,24.002,13.836v1.921l0,0c0.013,0.925,0.629,1.846,1.843,2.556      c2.475,1.429,6.484,1.429,8.952,0.003c1.222-0.706,1.839-1.634,1.846-2.559h0.006l-0.001-3.438l-1.636,2.465      c-0.069,0.043-0.137,0.091-0.215,0.138c-2.311,1.334-5.96,1.417-8.443,0.259l-2.345-2.867c0.004-0.521,0.197-1.045,0.594-1.525      c-2.474-1.433-24.603-14.185-24.603-14.185c-2.563-1.479-4.233-1.086-4.233-1.086c-2.686,0.405-5.279-0.783-5.279-0.783      s-0.407-0.174-0.873-0.503L284.821,244.107z M320.659,264.467v0.016C320.655,264.472,320.655,264.472,320.659,264.467z"/>
				<polygon style="fill:#939598;" points="293.07,242.091 290.237,240.457 290.238,243.854 293.07,245.493     "/>
				<polygon style="fill:#939598;" points="325.042,266.149 326.08,265.552 326.08,262.151 323.237,263.796 324.279,266.039     "/>
				<polygon style="fill:#939598;" points="329.973,265.599 331.019,264.997 329.973,262.753     "/>
				<path style="fill:#BCBEC0;" d="M296.653,248.686c0,0,22.129,12.752,24.603,14.185c-1.098,1.353-0.688,3.012,1.242,4.134      c2.475,1.422,6.48,1.422,8.952,0c2.47-1.43,2.471-3.745,0-5.168c-1.886-1.089-4.656-1.343-6.964-0.774      c-2.306-1.334-24.643-14.222-24.643-14.222c-2.554-1.475-1.866-2.442-1.866-2.442c0.695-1.555-1.358-3.052-1.358-3.052h0.005      c0,0-2.073-1.62-5.673-1.297c-0.714,0.408-0.714,0.408-0.714,0.408l2.833,1.634l-0.791,2.223l-3.84,0.454l-2.83-1.638      c0,0,0,0-0.717,0.413c-0.555,2.081,2.248,3.273,2.248,3.273s2.593,1.188,5.279,0.783      C292.42,247.6,294.091,247.207,296.653,248.686z M326.08,262.151l3.893,0.602l1.046,2.244l-2.853,1.645l-3.887-0.603      l-1.042-2.243L326.08,262.151z"/>
				<path style="fill:#939598;" d="M297.77,248.47c0.051-0.05,0.11-0.098,0.19-0.142l0.017-0.014      c0.488-0.271,1.279-0.271,1.769,0.006l21.44,12.361c0.077,0.046,0.14,0.089,0.191,0.142c0.289-0.274,0.225-0.645-0.191-0.884      l-21.44-12.358c-0.489-0.276-1.277-0.276-1.769,0l-0.018,0.015C297.547,247.826,297.485,248.192,297.77,248.47z"/>
				<path style="fill:#A7A9AC;" d="M297.77,248.47c0.051,0.048,0.11,0.094,0.189,0.141l21.441,12.363c0.484,0.28,1.277,0.28,1.768,0      l0.018-0.01c0.077-0.042,0.14-0.089,0.191-0.141c-0.051-0.053-0.113-0.096-0.191-0.142l-21.44-12.361      c-0.489-0.277-1.28-0.277-1.769-0.006l-0.017,0.014C297.881,248.372,297.821,248.42,297.77,248.47z"/>
			</g>
			<g>
				<path style="opacity:0.3;fill:#0D0D0D;" d="M321.585,287.256l-28.343-17.008c-1.65-0.972-1.676-3.358-0.047-4.382l0.082-0.057      c2.891-1.817,6.549-1.921,9.541-0.28l28.031,16.094c2.349,1.298,2.29,4.685-0.1,5.891l-0.101,0.052      C327.771,289.016,324.359,288.909,321.585,287.256z"/>
				<g>
					<path style="fill:#828282;" d="M298.886,265.829l-1.005-0.582c0,0,0,0,0.708-0.41c0.592-0.052,1.142-0.048,1.647-0.014       l-0.314,0.883L298.886,265.829z"/>
				</g>
				<polygon style="fill:#A7A9AC;" points="328.357,278.665 324.464,278.065 324.464,281.464 328.357,282.061     "/>
				<path style="fill:#939598;" d="M292.464,265.5v3.442h0.005c0.059,1.702,2.313,2.668,2.313,2.668s2.59,1.188,5.282,0.784      c0,0,1.669-0.396,4.232,1.081c0,0,11.17,6.294,14.743,8.355v1.922l0,0c0.014,0.925,0.628,1.846,1.844,2.556      c2.473,1.427,6.483,1.427,8.95,0.003c1.223-0.707,1.839-1.634,1.848-2.558h0.004l-0.002-3.439l-1.635,2.467      c-0.068,0.042-0.138,0.089-0.215,0.136c-2.311,1.333-5.959,1.418-8.442,0.26l-2.346-2.867c0.003-0.521,0.197-1.046,0.593-1.526      c-2.473-1.432-15.342-8.703-15.342-8.703c-2.564-1.479-4.232-1.086-4.232-1.086c-2.689,0.405-5.282-0.783-5.282-0.783      s-0.404-0.174-0.872-0.503L292.464,265.5z M319.043,280.38v0.015C319.039,280.384,319.039,280.384,319.043,280.38z"/>
				<polygon style="fill:#939598;" points="300.711,263.484 297.88,261.851 297.881,265.247 300.711,266.887     "/>
				<polygon style="fill:#939598;" points="323.427,282.061 324.464,281.464 324.464,278.065 321.621,279.707 322.663,281.953           "/>
				<polygon style="fill:#939598;" points="328.357,281.511 329.401,280.91 328.357,278.665     "/>
				<path style="fill:#BCBEC0;" d="M304.296,270.079c0,0,12.869,7.271,15.342,8.703c-1.097,1.353-0.686,3.011,1.245,4.134      c2.473,1.423,6.48,1.423,8.95,0c2.469-1.429,2.473-3.745,0-5.167c-1.884-1.091-4.654-1.343-6.962-0.774      c-2.307-1.334-15.385-8.741-15.385-8.741c-2.555-1.476-1.868-2.442-1.868-2.442c0.695-1.555-1.358-3.053-1.358-3.053h0.006      c0,0-2.074-1.619-5.675-1.296c-0.712,0.408-0.712,0.408-0.712,0.408l2.831,1.634l-0.789,2.222l-3.84,0.455l-2.831-1.638      c0,0,0,0-0.718,0.412c-0.554,2.081,2.248,3.275,2.248,3.275s2.594,1.188,5.282,0.783      C300.064,268.993,301.732,268.6,304.296,270.079z M324.464,278.065l3.893,0.6l1.044,2.245l-2.851,1.644l-3.888-0.601      l-1.042-2.246L324.464,278.065z"/>
				<path style="fill:#939598;" d="M305.411,269.863c0.052-0.05,0.111-0.098,0.191-0.142l0.016-0.014      c0.49-0.272,1.28-0.272,1.771,0.006l12.182,6.879c0.076,0.048,0.141,0.09,0.19,0.143c0.287-0.275,0.224-0.644-0.19-0.885      l-12.182-6.875c-0.49-0.277-1.277-0.277-1.771,0l-0.017,0.015C305.189,269.22,305.127,269.586,305.411,269.863z"/>
				<path style="fill:#A7A9AC;" d="M305.411,269.863c0.052,0.048,0.111,0.094,0.19,0.141l12.181,6.882c0.485,0.28,1.28,0.28,1.769,0      l0.02-0.009c0.076-0.043,0.141-0.09,0.19-0.142c-0.05-0.053-0.114-0.095-0.19-0.143l-12.182-6.879      c-0.49-0.277-1.28-0.277-1.771-0.006l-0.016,0.014C305.522,269.766,305.463,269.814,305.411,269.863z"/>
			</g>
		</g>
		<g>
			<path style="opacity:0.3;" d="M198.255,409.102l0.013,6.168c-0.013,0.025,0,0.049,0,0.077v0.029     c0.029,0.188,0.204,0.371,0.518,0.457l13.951,4.74c0.907,0.28,2.037,0.188,2.756-0.234l23.326-13.473l0.896,0.523     c1.231,0.714,3.864,0.362,5.876-0.805l27.736-16.02l2.827,1.634c-0.003,0.039-0.02,0.079-0.02,0.118     c0,0.646,0.222,1.102,0.6,1.325l14.46,8.353l0.002-0.004c0.371,0.214,0.883,0.185,1.446-0.138     c1.134-0.658,2.048-2.234,2.044-3.549c0.003-0.659-0.235-1.117-0.614-1.328l-14.459-8.337c-0.357-0.211-0.874-0.189-1.432,0.135     c-0.032,0.02-0.063,0.056-0.097,0.078l-0.895-0.519l1.637-0.933c0.587-0.351,0.961-0.773,1.13-1.207v-0.52     c4.224,1.335,9.065,2.071,14.177,2.073c7.795,0,15.126-1.759,20.645-4.949c5.515-3.178,8.628-7.214,8.482-12.874v-9.197     l-2.985,0.964c0,2.184-0.825,4.256-2.282,6.137c0.34-1.033,0.456-2.082,0.395-3.126c0.217-3.758-2.139-7.554-7.108-10.424     c-9.524-5.495-24.967-5.502-34.498,0c-4.99,2.882-7.338,6.698-7.099,10.471c-0.051,0.911,0.053,1.822,0.308,2.725     c-1.285-1.783-2.002-3.734-2.001-5.782l-3.131-0.881v5.385c-1.668-0.711-4.021-0.639-5.542,0.235l-1.86,1.078l-31.365,18.111     c-1.058,0.606-1.719,1.313-1.943,1.951l-0.033-0.027l-0.026,0.26c-0.012,0.07-0.021,0.142-0.021,0.208l-0.635,6.365     l-24.876,14.351c-0.173,0.103-0.242,0.228-0.264,0.354L198.255,409.102z"/>
			<g>
				<path style="fill:#1A1A1A;" d="M224.113,385.259l-0.69,6.933l-25.168,14.626l0.013,6.17c-0.013,0.024,0,0.047,0,0.076v0.03l0,0      c0.029,0.185,0.204,0.369,0.518,0.457l13.951,4.739c0.907,0.281,2.037,0.187,2.756-0.236l23.326-13.472l0.896,0.522      c1.231,0.717,3.864,0.364,5.876-0.802v-9.713l-19.507-7.742L224.113,385.259z M228.775,403.076l-15.399,7.688l-3.9-2.058      l14.528-8.387L228.775,403.076z"/>
				<path style="fill:#303030;" d="M225.65,387.282l-0.968-0.563c-1.231-0.716-0.603-2.23,1.407-3.385l19.501,11.256      c-2.012,1.16-4.645,1.53-5.876,0.809l-0.896-0.51L225.65,387.282z"/>
				<path style="fill:#303030;" d="M225.663,390.806l-27.108,15.637c-0.476,0.289-0.363,0.737,0.23,0.933l13.951,4.722      c0.907,0.287,2.037,0.192,2.763-0.228l23.319-13.462L225.663,390.806z M230.595,397.939l-17.531,10.128      c-0.375,0.205-0.956,0.266-1.42,0.111l-6.297-2.041c-0.687-0.239-0.805-0.773-0.258-1.09l18.902-10.915L230.595,397.939z"/>
				<path style="fill:#D63A3A;" d="M231.949,399.593c-0.686-0.399-1.782-0.399-2.462,0c-0.68,0.386-0.68,1.02,0,1.406      c0.68,0.405,1.775,0.405,2.462,0C232.617,400.612,232.622,399.975,231.949,399.593z"/>
				<path style="fill:#CF7C00;" d="M227.211,395.985l-9.813,5.66c-0.444,0.257-0.438,0.662,0.007,0.926l2.599,1.484l10.592-6.117      L227.211,395.985z"/>
				<path style="fill:#9E5F00;" d="M227.997,396.432l-7.518,4.352c-0.335,0.193-0.335,0.509,0,0.703l1.998,1.144l8.118-4.691      L227.997,396.432z"/>
				<polygon style="fill:#1C1C1C;" points="225.663,390.806 223.676,391.944 236.835,399.546 238.818,398.407     "/>
			</g>
			<path d="M320.274,369.511h-52.479c0,8.018,11.742,14.511,26.238,14.511C308.524,384.022,320.274,377.528,320.274,369.511z"/>
			<g>
				<g>
					<path style="fill:#121212;" d="M311.287,352.943c-9.533-5.495-24.976-5.495-34.488,0c-9.531,5.501-9.543,14.416-0.007,19.924       c9.52,5.5,24.962,5.488,34.495-0.007C320.806,367.359,320.806,358.444,311.287,352.943z"/>
					<path style="fill:#262626;" d="M311.278,351.993c-9.524-5.496-24.967-5.5-34.498,0c-9.524,5.502-9.524,14.416,0.012,19.911       c9.52,5.502,24.962,5.502,34.495,0C320.806,366.397,320.806,357.495,311.278,351.993z"/>
					<path style="fill:#A6A6A6;" d="M305.226,355.495c-6.178-3.571-16.2-3.571-22.387,0c-6.176,3.554-6.183,9.343,0.006,12.914       c6.181,3.565,16.203,3.565,22.381,0C311.406,364.843,311.406,359.049,305.226,355.495z"/>
					<path style="fill:#828282;" d="M299.883,358.81c-3.114-1.802-8.164-1.796-11.282,0c-3.111,1.8-3.111,4.727,0.008,6.509       c3.11,1.812,8.16,1.806,11.274,0C302.99,363.536,302.99,360.609,299.883,358.81z"/>
					<path style="fill:#2B2B2B;" d="M296.104,360.996c-1.025-0.599-2.697-0.599-3.732,0c-1.024,0.599-1.024,1.554,0.008,2.147       c1.026,0.593,2.698,0.593,3.724,0C297.131,362.546,297.131,361.595,296.104,360.996z"/>
					<polygon style="fill:#595959;" points="296.369,363.91 296.761,364.749 298.216,364.978 299.282,364.356 298.89,363.513        297.441,363.295      "/>
					<polygon style="fill:#595959;" points="288.938,359.617 289.331,360.455 290.79,360.691 291.852,360.07 291.46,359.224        290.001,359.003      "/>
					<polygon style="fill:#595959;" points="296.621,359.629 297.008,360.474 298.467,360.703 299.541,360.075 299.149,359.242        297.696,359.003      "/>
					<polygon style="fill:#595959;" points="288.997,364.033 289.378,364.866 290.843,365.108 291.916,364.48 291.523,363.642        290.06,363.424      "/>
					<polygon style="fill:#D63A3A;" points="302.861,354.938 298.27,357.595 301.999,359.746 306.598,357.096      "/>
					<polygon style="fill:#1E9E39;" points="294.013,354.011 280.81,361.616 281.713,362.141 294.896,354.532      "/>
					<polygon style="fill:#6B6B6B;" points="290.211,354.083 279.899,360.017 281.496,360.931 291.796,354.99      "/>
					<path style="fill:#6B6B6B;" d="M305.694,366.129l-4.429,2.555c-1.719,0.998-4.51,0.998-6.242,0l-0.021-0.017l10.663-6.164       l0.029,0.017C307.418,363.513,307.418,365.131,305.694,366.129z"/>
					<polygon style="fill:none;" points="285.636,364.122 281.424,366.55 286.293,369.36 290.505,366.938      "/>
					<polygon style="fill:#6B6B6B;" points="286.224,364.156 281.391,366.948 282.147,367.383 286.973,364.603      "/>
					<polygon style="fill:none;" points="307.858,357.823 303.266,360.485 302.346,359.945 306.944,357.296      "/>
					<polygon style="fill:#D63A3A;" points="286.85,365.108 283.155,367.243 285.131,368.393 288.839,366.25      "/>
				</g>
			</g>
			<path style="fill:#6E6E6E;" d="M264.857,367.716c-0.276,10.493,13.172,17.742,29.276,17.748c7.795,0,15.126-1.76,20.645-4.95     c5.515-3.179,8.628-7.213,8.482-12.873v-9.196c0,8.328-13.952,17.008-28.363,17.003c-14.415,0.005-30.039-8.593-30.039-16.92     V367.716z"/>
			<polygon style="fill:#303030;" points="266.704,366.027 264.517,367.324 279.59,376.028 281.788,374.738    "/>
			<path style="fill:#1A1A1A;" d="M279.957,383.909c-0.169,0.434-0.543,0.857-1.13,1.208l-1.883,1.074l0.012-9.701     c0.164-0.979,3.001-2.286,3.001-2.286V383.909z"/>
			<polygon style="fill:#FFAB2E;" points="276.956,376.49 245.591,394.59 245.591,404.303 276.944,386.191    "/>
			<polygon style="fill:#FF9800;" points="257.455,365.226 226.09,383.334 245.591,394.59 276.956,376.49    "/>
			<g>
				<polygon style="fill:#CF7C00;" points="247.427,374.818 233.159,383.065 244.559,389.646 258.827,381.41     "/>
				<polygon style="fill:#24170D;" points="237.15,382.455 236.436,382.878 245.129,387.899 245.849,387.481     "/>
				<polygon style="fill:#24170D;" points="238.446,381.71 237.727,382.127 246.418,387.147 247.14,386.719     "/>
				<polygon style="fill:#24170D;" points="239.738,380.954 239.029,381.369 247.713,386.385 248.44,385.979     "/>
				<polygon style="fill:#24170D;" points="241.045,380.204 240.319,380.626 249.015,385.64 249.726,385.23     "/>
				<polygon style="fill:#24170D;" points="242.349,379.452 241.621,379.875 250.311,384.891 251.033,384.478     "/>
				<polygon style="fill:#24170D;" points="243.644,378.713 242.917,379.124 251.613,384.132 252.331,383.728     "/>
				<polygon style="fill:#FF9800;" points="248.981,376.478 245.04,378.742 252.436,383.012 256.382,380.742     "/>
			</g>
			<g>
				<polygon style="fill:#1A1A1A;" points="281.788,374.738 279.59,376.028 279.578,383.265 281.788,381.962     "/>
				<path style="fill:#303030;" d="M279.957,374.204c-0.169,0.446-0.543,0.862-1.13,1.207l-1.871,1.079l-19.501-11.265l1.86-1.081      c1.677-0.961,4.374-0.961,6.039,0l1.109,0.64C268.845,368.967,273.718,372.233,279.957,374.204z"/>
			</g>
			<g>
				<path style="fill:#363636;" d="M264.857,358.527c-0.276,10.492,13.179,17.746,29.27,17.746c7.802,0,15.127-1.759,20.651-4.938      c5.525-3.178,8.628-7.225,8.482-12.892l-2.985,0.962c0,8.317-11.725,15.102-26.147,15.102c-14.415,0-26.144-6.784-26.139-15.102      L264.857,358.527z"/>
			</g>
			<g>
				<polygon style="fill:#363636;" points="269.438,383.909 269.45,390.262 275.102,386.978 275.102,386.978 275.102,380.626           "/>
				<polygon style="fill:#1A1A1A;" points="273.571,379.746 267.918,383.023 269.438,383.909 275.102,380.626     "/>
				<polygon style="fill:#303030;" points="267.918,383.023 267.918,389.376 267.918,389.376 269.45,390.262 269.45,390.262       269.438,383.909 267.918,383.023     "/>
				<path style="fill:#6E6E6E;" d="M281.823,393.194l-10.527-6.089l0,0c-0.247-0.128-0.393-0.439-0.397-0.873      c0.005-0.881,0.621-1.941,1.371-2.376c0.381-0.217,0.72-0.234,0.968-0.088l0,0l10.529,6.076L281.823,393.194z"/>
				<path style="fill:#262626;" d="M291.194,399.71l-14.46-8.353l0,0c-0.378-0.223-0.6-0.68-0.6-1.325      c0-1.302,0.917-2.885,2.047-3.543c0.558-0.321,1.074-0.345,1.432-0.134l0,0l14.475,8.345L291.194,399.71z"/>
				<path style="fill:#6E6E6E;" d="M292.643,394.836c-1.124,0.668-2.046,2.24-2.04,3.548c-0.006,1.304,0.916,1.829,2.04,1.185      c1.134-0.657,2.048-2.234,2.044-3.548C294.69,394.718,293.77,394.191,292.643,394.836z"/>
			</g>
		</g>
		<g>
			<path style="opacity:0.3;" d="M352.211,177.48l-9.117-5.266l-30.698,17.724l1.26-0.733l-33.644-19.417l0.005-5.168l-1.285-0.741     l18.364-10.602v-7.624l-9.127-5.272L40.644,283.17v7.636l1.271,0.734l-18.356,10.597v7.637l9.126,5.267l18.169-10.489     l39.386,22.739l-11.552,6.67v7.623l9.12,5.28L335.142,204.07v-7.635l-1.286-0.739l18.355-10.598V177.48z M95.767,315.005v6.81     l-37.409-21.598l17.456-10.079l31.505,18.197L95.767,315.005z M114.826,304.002L83.32,285.806l7.303-4.216l31.51,18.192     L114.826,304.002z M129.629,295.455l-31.502-18.198l17.449-10.072l31.515,18.188L129.629,295.455z M152.764,282.099l1.828-1.065     l-31.503-18.188l7.296-4.212l31.514,18.189L152.764,282.099z M169.396,272.496l-31.506-18.197l17.454-10.076l31.508,18.196     L169.396,272.496z M193.605,258.52l0.754-0.438l-31.508-18.192l7.299-4.215l31.512,18.194L193.605,258.52z M209.177,249.529     l-31.51-18.192l17.441-10.071l31.506,18.197L209.177,249.529z M232.414,236.112l1.706-0.993l-31.502-18.188l7.304-4.217     l31.508,18.193L232.414,236.112z M248.938,226.574l-31.507-18.193l17.441-10.069l31.513,18.188L248.938,226.574z      M273.894,212.165l-31.509-18.192l7.3-4.215l31.507,18.194L273.894,212.165z M288.699,203.618l-31.509-18.194l17.45-10.074     l31.518,18.187L288.699,203.618z"/>
			<g>
				<g>
					<polygon style="fill:#939598;" points="32.691,303.728 280.017,160.943 280.01,168.574 32.685,311.364      "/>
					<polygon style="fill:#939598;" points="23.559,298.461 32.691,303.728 32.685,311.364 23.559,306.098      "/>
					<polygon style="fill:#BCBEC0;" points="23.559,298.461 270.88,155.67 280.017,160.943 32.691,303.728      "/>
				</g>
				<g>
					<polygon style="fill:#939598;" points="87.809,335.563 335.142,192.76 335.142,200.396 87.809,343.188      "/>
					<polygon style="fill:#939598;" points="78.689,330.284 87.809,335.563 87.809,343.188 78.689,337.91      "/>
					<polygon style="fill:#BCBEC0;" points="78.689,330.284 326.002,187.499 335.142,192.76 87.809,335.563      "/>
				</g>
				<path style="fill:#BCBEC0;" d="M97.744,319.281L53.17,293.547l0,0c-0.492-0.281-1.148-0.247-1.882,0.177      c-1.477,0.855-2.663,2.907-2.669,4.596c0.012,0.858,0.312,1.434,0.798,1.726l0,0l40.854,23.588L97.744,319.281z"/>
				<path style="fill:#BCBEC0;" d="M137.501,296.327l-44.573-25.748l0,0c-0.476-0.268-1.137-0.222-1.877,0.189      c-1.472,0.831-2.663,2.896-2.663,4.598c0.012,0.855,0.312,1.441,0.785,1.711l0,0l40.855,23.589L137.501,296.327z"/>
				<path style="fill:#BCBEC0;" d="M177.276,273.371l-44.578-25.746l0,0c-0.486-0.28-1.143-0.246-1.883,0.188      c-1.466,0.846-2.657,2.909-2.662,4.598c0.005,0.845,0.304,1.432,0.786,1.714l0,0l40.865,23.588L177.276,273.371z"/>
				<path style="fill:#BCBEC0;" d="M217.04,250.393l-44.583-25.74l0,0c-0.476-0.269-1.127-0.223-1.878,0.201      c-1.466,0.832-2.657,2.895-2.657,4.597c0.019,0.832,0.293,1.432,0.779,1.713l0,0l40.867,23.594L217.04,250.393z"/>
				<path style="fill:#BCBEC0;" d="M256.81,227.445l-44.586-25.748l0,0c-0.48-0.263-1.137-0.234-1.876,0.2      c-1.466,0.844-2.657,2.903-2.657,4.594c0,0.849,0.3,1.436,0.781,1.711l0,0l40.861,23.593L256.81,227.445z"/>
				<path style="fill:#BCBEC0;" d="M296.573,204.488l-44.579-25.739l0,0c-0.487-0.27-1.139-0.241-1.89,0.182      c-1.459,0.85-2.643,2.909-2.649,4.597c0.011,0.862,0.291,1.443,0.778,1.718l0,0l40.861,23.595L296.573,204.488z"/>
			</g>
			<g>
				<g>
					<polygon style="fill:#939598;" points="49.775,284.772 297.096,141.977 297.096,149.6 49.775,292.397      "/>
					<polygon style="fill:#939598;" points="40.644,279.495 49.775,284.772 49.775,292.397 40.644,287.132      "/>
					<polygon style="fill:#BCBEC0;" points="40.644,279.495 287.969,136.704 297.096,141.977 49.775,284.772      "/>
				</g>
				<g>
					<polygon style="fill:#939598;" points="104.893,316.596 352.211,173.805 352.211,181.423 104.893,324.22      "/>
					<polygon style="fill:#939598;" points="95.767,311.33 104.893,316.596 104.893,324.22 95.767,318.951      "/>
					<polygon style="fill:#BCBEC0;" points="95.767,311.33 343.094,168.538 352.211,173.805 104.893,316.596      "/>
				</g>
				<path style="fill:#BCBEC0;" d="M114.828,300.327L70.243,274.58l0,0c-0.487-0.281-1.144-0.248-1.877,0.188      c-1.466,0.832-2.668,2.909-2.656,4.599c0,0.844,0.305,1.441,0.78,1.712l0,0l40.861,23.6L114.828,300.327z"/>
				<path style="fill:#BCBEC0;" d="M154.592,277.358l-44.573-25.733l0,0c-0.486-0.269-1.155-0.247-1.894,0.189      c-1.466,0.844-2.651,2.896-2.656,4.598c0,0.846,0.316,1.43,0.797,1.725l0,0l40.848,23.575L154.592,277.358z"/>
				<path style="fill:#BCBEC0;" d="M194.36,254.404l-44.583-25.741l0,0c-0.482-0.28-1.15-0.245-1.883,0.186      c-1.466,0.847-2.65,2.9-2.65,4.607c0,0.844,0.299,1.431,0.786,1.711l0,0l40.848,23.591L194.36,254.404z"/>
				<path style="fill:#BCBEC0;" d="M234.12,231.444l-44.58-25.741l0,0c-0.487-0.265-1.138-0.235-1.877,0.188      c-1.466,0.846-2.656,2.902-2.656,4.591c0,0.856,0.299,1.45,0.78,1.726l0,0l40.854,23.595L234.12,231.444z"/>
				<path style="fill:#BCBEC0;" d="M273.894,208.489l-44.579-25.74l0,0c-0.482-0.283-1.145-0.242-1.883,0.181      c-1.471,0.85-2.661,2.903-2.661,4.599c0,0.838,0.304,1.437,0.779,1.724l0,0l40.853,23.582L273.894,208.489z"/>
				<path style="fill:#BCBEC0;" d="M313.655,185.529l-44.582-25.73l0,0c-0.482-0.288-1.14-0.253-1.877,0.176      c-1.472,0.844-2.657,2.903-2.657,4.597c0,0.846,0.299,1.438,0.781,1.725l0,0l40.858,23.577L313.655,185.529z"/>
			</g>
		</g>
		<g>
			<g>
				<path style="fill:#D1D3D4;" d="M130.015,377.762c-0.642-0.88-2.061-1.677-4.135-1.091l-13.636,5.191l-1.095-0.677l14.143-8.771      c2.972-1.484,4.109-2.773,3.087-3.67c0,0-1.946-1.486-4.628-0.721l-17.373,10.645l-1.934-0.975l16.442-12.379      c2.261-1.564-0.885-2.821-0.885-2.821s-2.577-1.027-4.952,0.484l-16.253,12.161c-0.236,0.093-2.509-0.669-2.509-0.669      l9.368-11.311c1.105-0.922,0.71-2.192-0.886-2.824c0,0-3.394-1.065-4.949,0.488l-16.039,17.241c0,0-1.327,0.796-3.135,1.838      l-0.607-4.565c-0.19-2.499-1.771-3.597-4.621-3.407c-4.934,0.267-2.964,4.857-2.964,4.857s-0.314,11.156,0.458,12.133      c0.649,0.815,0.486,1.761-0.387,2.504l-3.925,3.321l17.45,6.984l4.192-3.491c0.81-0.672,1.963-1.172,3.306-1.436      c2.135-0.404,5.408-1.102,7.031-1.816c1.179-0.513,11.71-7.989,11.71-7.989l15.981-7.171      C129.607,379.159,130.399,378.283,130.015,377.762z"/>
				<path style="fill:#2A4E68;" d="M75.465,384.911l0.013-0.025c0.295-0.554,0.825-1.062,1.538-1.471l3.685-2.127      c1.235-0.714,2.932-1.091,4.67-1.041l0.147,0.006c2.978,0.092,5.425,1.398,5.788,3.111l0.607,2.857      c0.257,1.203-0.563,2.395-2.167,3.16l-1.764,0.855c-2.446,1.172-6.043,1.076-8.294-0.221L77,388.468      C75.389,387.538,74.798,386.175,75.465,384.911z"/>
				<path style="fill:#2A4E68;" d="M105.137,385.419c-4.212-3.187-9.348-5.909-15.191-8.066c-1.259-0.467-1.718-1.42-0.982-2.17      c0.009-0.012,0.021-0.021,0.029-0.023c0.734-0.754,2.496-0.98,3.897-0.463c6.374,2.354,11.982,5.333,16.581,8.795      c1.007,0.76,0.775,1.797-0.459,2.282c-0.015,0.013-0.029,0.018-0.047,0.021C107.73,386.279,106.048,386.094,105.137,385.419z"/>
				<path style="fill:#A7A9AC;" d="M125.293,372.414l-14.143,8.771l1.095,0.677l3.647-1.39l9.401-5.821      c2.222-1.12,3.413-2.12,3.451-2.928h0.008v-2.291h-0.018C128.76,370.254,127.573,371.274,125.293,372.414z"/>
				<path style="fill:#A7A9AC;" d="M96.289,374.47c0,0,0.776,0.254,1.466,0.455l7.902-9.539c0.436-0.467,0.633-0.904,0.621-1.3h0.01      l-0.007-2.045c-0.008,0.388-0.213,0.771-0.624,1.117L96.289,374.47z"/>
				<path style="fill:#B3B3B3;" d="M72.413,378.91c0.02-1.256,0.045-2.124,0.045-2.124s-0.358-0.838-0.388-1.816v2.285h0.006      C72.106,378.004,72.325,378.665,72.413,378.91z"/>
				<path style="fill:#B3B3B3;" d="M72.915,388.919c-0.381-0.482-0.493-3.428-0.518-6.294c-0.024,3.25,0.036,7.612,0.482,8.438      C73.428,390.385,73.46,389.607,72.915,388.919z"/>
				<path style="fill:#A7A9AC;" d="M120.888,365.315l-16.442,12.379l1.769,0.895l14.672-11.044c0.564-0.388,0.787-0.758,0.816-1.098      l0,0l0,0v-0.009v-2.222C121.677,364.553,121.452,364.93,120.888,365.315z"/>
				<path style="fill:#A7A9AC;" d="M130.104,378.004c0.049,0.528-0.69,1.251-1.831,1.821l-15.981,7.171      c0,0-10.531,7.477-11.71,7.989c-1.623,0.715-4.896,1.412-7.031,1.816c-1.342,0.264-2.496,0.764-3.306,1.436l-4.192,3.491      l-15.662-6.273l-1.788,1.509l17.45,6.992l4.192-3.494c0.81-0.666,1.963-1.17,3.306-1.434c2.135-0.408,5.408-1.104,7.031-1.813      c1.179-0.515,11.71-7.99,11.71-7.99l15.981-7.172c1.1-0.55,1.819-1.236,1.828-1.754h0.01v-2.296H130.104z"/>
				<polygon style="fill:#BA6000;" points="85.696,404.863 67.393,397.533 67.393,395.305 85.696,402.634     "/>
				<polygon style="fill:#FF9D26;" points="85.696,402.634 67.393,395.305 68.242,394.598 86.541,401.926     "/>
				<g>
					<path style="fill:#2A4E68;" d="M101.029,366.481l-4.38-1.333l3.614-3.571c0.637-0.691,2.122-0.955,3.318-0.586l0.045,0.014       c1.195,0.363,1.655,1.225,1.02,1.913L101.029,366.481z"/>
					<path style="fill:#2A4E68;" d="M78.647,377.992l-4.959,0.034l-0.013-3.742c-0.014-0.784,1.075-1.421,2.431-1.431h0.047       c1.352-0.009,2.464,0.614,2.479,1.4L78.647,377.992z"/>
					<path style="fill:#2A4E68;" d="M115.062,368.482l-3.972-1.708l4.409-3.056c0.811-0.632,2.349-0.762,3.436-0.299l0.035,0.025       c1.087,0.467,1.313,1.354,0.505,1.981L115.062,368.482z"/>
					<path style="fill:#2A4E68;" d="M121.561,373.713l-3.204-1.727l4.896-2.751c0.813-0.508,2.186-0.537,3.058-0.062l0.034,0.019       c0.876,0.469,0.923,1.261,0.102,1.77L121.561,373.713z"/>
					<path style="fill:#2A4E68;" d="M122.93,381.12l-2.457-1.728l4.947-1.822c0.82-0.39,2.029-0.323,2.699,0.148l0.024,0.021       c0.674,0.475,0.553,1.171-0.267,1.557L122.93,381.12z"/>
				</g>
				<polygon style="fill:#FF8400;" points="86.541,401.926 85.696,402.634 85.696,404.863 86.541,404.154     "/>
			</g>
			<g>
				<path style="fill:#D1D3D4;" d="M186.678,394.077c0.155-0.943-0.436-2.036-2.739-2.09l-16.275,0.827l-0.404-0.896l19.656-3.836      c3.847-0.492,5.908-1.319,5.743-2.388c0,0-0.484-1.838-3.477-1.897l-24.045,4.602l-0.904-1.387l24.655-6.387      c3.278-0.751,1.541-2.724,1.541-2.724s-1.415-1.615-4.751-0.93l-24.309,6.233c-0.282,0.021-1.659-1.278-1.659-1.278      l17.555-7.381c1.732-0.508,2.424-1.726,1.546-2.73c0,0-2.113-1.863-4.751-0.927l-28.31,10.772c0,0-1.822,0.343-4.269,0.757      l3.225-4.183c1.891-2.251,1.398-3.653-1.264-4.267c-4.558-1.12-6.611,3.468-6.611,3.468s-9.455,9.723-9.577,10.8      c-0.104,0.893-1.021,1.685-2.4,2.087l-6.188,1.852l9.603,10.934l6.564-1.922c1.26-0.371,2.694-0.496,4.083-0.354      c2.213,0.219,5.67,0.503,7.69,0.326c1.453-0.127,16.875-3.813,16.875-3.813l19.962-1.925      C185.165,395.207,186.584,394.645,186.678,394.077z"/>
				<path style="fill:#A7A9AC;" d="M144.706,378.237l-3.225,4.183c0.665-0.109,1.284-0.216,1.829-0.313l1.396-1.808      c0.776-0.925,1.129-1.7,1.117-2.343h0.013v-1.897C145.788,376.671,145.413,377.393,144.706,378.237z"/>
				<path style="fill:#A7A9AC;" d="M177.266,374.548l-17.555,7.381c0,0,1.376,1.299,1.659,1.278l0.546-0.137l15.351-6.46      c1.236-0.364,1.93-1.086,1.916-1.835h0.008v-2.087h-0.008C179.208,373.448,178.515,374.186,177.266,374.548z"/>
				<path style="fill:#A7A9AC;" d="M188.887,380.627l-24.655,6.387l0.904,1.387l6.505-1.251l17.246-4.462      c1.644-0.377,2.028-1.067,2-1.65l0,0v-2.007l0,0C190.887,379.602,190.487,380.263,188.887,380.627z"/>
				<path style="fill:#A7A9AC;" d="M186.915,388.083l-19.656,3.836l0.404,0.896l7.534-0.381l11.718-2.288      c3.847-0.493,5.908-1.314,5.743-2.387v-1.973h-0.006C192.688,386.811,190.654,387.605,186.915,388.083z"/>
				<path style="fill:#A7A9AC;" d="M186.678,394.077c-0.093,0.567-1.512,1.13-3.235,1.345l-19.962,1.925      c0,0-15.422,3.686-16.875,3.813c-2.021,0.177-5.478-0.107-7.69-0.326c-1.389-0.142-2.823-0.017-4.083,0.354l-6.564,1.922      l-8.164-9.298l-1.44,0.424l9.603,10.932l6.564-1.919c1.26-0.366,2.694-0.496,4.083-0.357c2.213,0.229,5.67,0.508,7.69,0.33      c1.453-0.127,16.875-3.815,16.875-3.815l19.962-1.922c1.723-0.221,3.142-0.773,3.235-1.342c0.014-0.079,0.014-0.162,0.018-0.248      h0.005v-0.099c0-0.006,0-0.015,0-0.019v-2.019l0,0C186.701,393.869,186.696,393.979,186.678,394.077z"/>
				<polygon style="fill:#BA6000;" points="127.212,405.865 117.136,394.397 117.136,392.332 127.212,403.803     "/>
				<polygon style="fill:#FF9D26;" points="127.212,403.803 117.136,392.332 118.466,391.946 128.537,403.423     "/>
				<polygon style="fill:#FF8400;" points="128.537,403.423 127.212,403.803 127.212,405.865 128.537,405.475     "/>
			</g>
		</g>
		<g>
			<g>
				<path style="opacity:0.2;" d="M265.095,277.214c3.02-1.693,6.754-1.672,9.779,0.051l48.257,27.73      c1.784,1.051,1.784,3.622-0.026,4.648l-0.085,0.052c-3.035,1.709-6.761,1.693-9.758-0.052l-48.284-27.745      c-1.791-1.025-1.765-3.607,0.025-4.633L265.095,277.214z"/>
				<path style="fill:#0F0F0F;" d="M265.827,274.86c0.397,0.24,0.72,0.804,0.72,1.272c0,0.468-0.322,0.661-0.729,0.406      c-0.417-0.211-0.724-0.792-0.724-1.261C265.095,274.811,265.401,274.642,265.827,274.86z"/>
				<path style="fill:#0F0F0F;" d="M267.069,273.336l2.204,1.286l-0.041,3.423l-1.166-0.684v-2.076l-2.176-1.276      c-0.407-0.22-0.77-0.257-1.032-0.089l1.178-0.688C266.296,273.093,266.665,273.109,267.069,273.336z"/>
				<path style="fill:#1F1F1F;" d="M264.402,274.86v0.036c0,0.939,0.662,2.072,1.461,2.543l2.188,1.297l0.016-3.451l-2.176-1.276      C265.082,273.565,264.402,273.927,264.402,274.86z M265.095,275.278c0-0.467,0.307-0.637,0.732-0.418      c0.397,0.24,0.72,0.804,0.72,1.272c0,0.468-0.322,0.661-0.729,0.406C265.401,276.328,265.095,275.747,265.095,275.278z"/>
				<polygon style="fill:#0F0F0F;" points="264.832,273.927 264.832,273.927 264.832,273.927     "/>
				<path style="fill:#303030;" d="M267.521,275.818c1.209-2.134,3.93-2.834,6.059-1.603l15.567,9.079l-4.515,7.745l-15.561-9.082      c-2.125-1.224-2.847-3.934-1.586-6.064L267.521,275.818z"/>
				<path style="fill:#474747;" d="M286.897,283.505c1.765-1.014,3.184-0.188,3.154,1.818c0,2.045-1.419,4.507-3.185,5.497      c-1.772,0.997-3.188,0.176-3.157-1.835C283.71,286.947,285.118,284.502,286.897,283.505z"/>
				<path style="fill:#303030;" d="M287.694,283.953c0.878-0.51,1.692-0.54,2.265-0.2l1.987,1.144l-4.515,7.774l-1.988-1.156      c-0.58-0.355-0.935-1.068-0.935-2.056C284.509,287.429,285.939,284.959,287.694,283.953z"/>
				<path style="fill:#474747;" d="M289.705,285.133c1.762-1.011,3.181-0.178,3.159,1.828c0,2.033-1.419,4.489-3.181,5.498      c-1.747,1.004-3.186,0.178-3.186-1.843C286.498,288.586,287.95,286.141,289.705,285.133z"/>
				<polygon style="fill:#BCBEC0;" points="317.643,303.86 320.239,304.151 322.764,306.935 322.764,308.092 321.951,308.569       321.951,307.41 319.391,304.62 316.823,304.328 289.387,288.342 290.235,287.86     "/>
				<g>
					<polygon style="fill:#939598;" points="319.391,304.62 321.951,307.41 321.951,308.569 319.363,308.348 316.823,305.675        289.387,289.685 289.387,288.342 316.823,304.328      "/>
				</g>
				<path style="fill:#BA6000;" d="M270.451,277.552c0.217-0.409,0.692-0.511,1.096-0.294l0.357,0.2      c-0.396-0.222-0.879-0.09-1.092,0.308h-0.033c-0.198,0.377-0.089,0.87,0.31,1.093l-0.347-0.19      c-0.412-0.244-0.533-0.722-0.291-1.111V277.552z"/>
				<path style="fill:#FF8400;" d="M270.813,277.766c0.213-0.397,0.696-0.529,1.092-0.308l10.321,6.024      c0.381,0.224,0.505,0.722,0.288,1.094c-0.228,0.383-0.734,0.523-1.107,0.3l-10.317-6.018c-0.398-0.223-0.508-0.716-0.31-1.093      H270.813z"/>
				<path style="fill:#BA6000;" d="M270.306,280.637c0,0.035,0,0.098,0,0.111v0.017c0,0.448,0.305,0.992,0.665,1.214l10.689,6.225      c0.202,0.115,0.359,0.131,0.479,0.043c-0.044,0.367-0.324,0.504-0.67,0.32l-10.689-6.26c-0.396-0.215-0.719-0.745-0.719-1.191      l0.017-0.026C270.077,280.873,270.2,280.708,270.306,280.637z"/>
				<path style="fill:#FF8400;" d="M281.469,286.916c0.394,0.228,0.699,0.762,0.699,1.201v0.036c0,0.022,0,0.077-0.029,0.093      c-0.119,0.088-0.276,0.072-0.479-0.043l-10.689-6.225c-0.36-0.222-0.665-0.766-0.665-1.214v-0.017c0-0.014,0-0.076,0-0.111      c0.132-0.059,0.305-0.04,0.474,0.066L281.469,286.916z"/>
				<path style="fill:#BA6000;" d="M273.345,275.521c0.398-0.224,1.008-0.224,1.382,0.021l10.688,6.216      c0.365,0.2,0.379,0.524,0.083,0.733c0-0.137-0.083-0.288-0.28-0.392l-10.659-6.234c-0.399-0.206-1.042-0.228-1.418,0v0.005      c-0.037,0.024-0.057,0.031-0.078,0.084c-0.025-0.167,0.078-0.316,0.283-0.408V275.521z"/>
				<path style="fill:#FF8400;" d="M273.14,275.865c0.376-0.228,1.019-0.206,1.418,0l10.659,6.234      c0.197,0.103,0.28,0.255,0.28,0.392c-0.026,0.036-0.039,0.058-0.083,0.076v0.012c-0.398,0.204-1.026,0.204-1.396-0.03      l-10.674-6.218c-0.205-0.132-0.283-0.256-0.283-0.377c0.022-0.053,0.041-0.06,0.078-0.084V275.865z"/>
			</g>
			<g>
				<path style="opacity:0.2;" d="M275.943,301.151c2.551-1.447,5.64-1.42,8.178,0.029l29.337,16.822      c1.532,0.876,1.502,3.054-0.024,3.905l-0.079,0.027c-2.521,1.452-5.643,1.44-8.177-0.018l-29.334-16.84      c-1.496-0.852-1.482-3.05,0-3.896L275.943,301.151z"/>
				<path style="fill:#0F0F0F;" d="M278.293,298.811c0.342,0.213,0.678,0.745,0.664,1.173c0,0.454-0.335,0.623-0.694,0.399      c-0.389-0.201-0.714-0.767-0.704-1.194C277.559,298.754,277.895,298.568,278.293,298.811z"/>
				<path style="fill:#0F0F0F;" d="M279.439,297.357l2.069,1.211l-0.014,3.238l-1.137-0.655v-1.939l-2.046-1.223      c-0.369-0.2-0.738-0.234-0.995-0.088l1.123-0.66C278.695,297.105,279.052,297.123,279.439,297.357z"/>
				<path style="fill:#1F1F1F;" d="M276.924,298.811v0.03c0,0.862,0.61,1.967,1.382,2.395l2.053,1.227v-3.251l-2.046-1.223      C277.549,297.55,276.924,297.902,276.924,298.811z M277.559,299.19c0-0.436,0.336-0.621,0.734-0.378      c0.342,0.213,0.678,0.745,0.664,1.173c0,0.454-0.335,0.623-0.694,0.399C277.874,300.183,277.549,299.617,277.559,299.19z"/>
				<polygon style="fill:#0F0F0F;" points="277.296,297.901 277.296,297.902 277.296,297.902     "/>
				<path style="fill:#303030;" d="M279.863,299.693c1.146-2.008,3.741-2.673,5.752-1.495l11.564,6.718l-4.271,7.34l-11.597-6.73      c-1.974-1.184-2.678-3.749-1.515-5.767L279.863,299.693z"/>
				<path style="fill:#474747;" d="M295.041,305.117c1.683-0.923,3.02-0.163,3.02,1.739c0,1.93-1.354,4.242-3.02,5.203      c-1.655,0.947-3.016,0.17-3.016-1.753C292.025,308.409,293.386,306.076,295.041,305.117z"/>
				<path style="fill:#303030;" d="M295.829,305.564c0.829-0.475,1.563-0.51,2.136-0.192l1.877,1.101l-4.276,7.327l-1.916-1.102      c-0.526-0.304-0.843-0.988-0.843-1.928C292.807,308.852,294.167,306.512,295.829,305.564z"/>
				<path style="fill:#474747;" d="M297.712,306.68c1.671-0.946,3.007-0.178,2.996,1.752c0,1.898-1.349,4.217-3.01,5.172      c-1.666,0.948-3.012,0.17-3.012-1.75C294.686,309.954,296.05,307.613,297.712,306.68z"/>
				<path style="fill:#BA6000;" d="M283.686,301.043l0.323,0.208c-0.358-0.208-0.825-0.07-1.037,0.292      c-0.227,0.353-0.097,0.821,0.255,1.041l-0.338-0.2c-0.343-0.225-0.464-0.669-0.252-1.053      C282.851,300.984,283.319,300.843,283.686,301.043z"/>
				<path style="fill:#FF8400;" d="M284.01,301.251l6.624,3.866c0.363,0.197,0.48,0.672,0.263,1.041v0.002      c-0.201,0.352-0.667,0.484-1.032,0.274l-6.637-3.851c-0.351-0.22-0.481-0.689-0.255-1.041      C283.185,301.181,283.652,301.043,284.01,301.251z"/>
				<path style="fill:#BA6000;" d="M282.497,304.363v0.005c0,0.429,0.263,0.946,0.647,1.157l6.964,4.053      c0.18,0.125,0.342,0.125,0.473,0.039c-0.079,0.365-0.346,0.469-0.659,0.277l-6.958-4.052c-0.376-0.217-0.671-0.726-0.671-1.127      v-0.023c0-0.207,0.072-0.371,0.204-0.43C282.497,304.302,282.497,304.338,282.497,304.363z"/>
				<path style="fill:#FF8400;" d="M289.922,308.367c0.366,0.218,0.671,0.725,0.671,1.147v0.007c0,0.037-0.012,0.08-0.012,0.096      c-0.131,0.086-0.293,0.086-0.473-0.039l-6.964-4.053c-0.385-0.211-0.647-0.728-0.647-1.157v-0.005c0-0.025,0-0.062,0-0.101      c0.119-0.065,0.263-0.037,0.467,0.054L289.922,308.367z"/>
				<path style="fill:#BA6000;" d="M285.398,299.407c0.332-0.185,0.943-0.175,1.285,0l6.966,4.091      c0.328,0.168,0.351,0.484,0.081,0.696c0-0.14-0.097-0.293-0.253-0.396l-6.987-4.044c-0.34-0.209-0.938-0.214-1.285-0.008      l-0.012,0.008c-0.036,0.005-0.09,0.029-0.119,0.056c0-0.126,0.119-0.27,0.307-0.402H285.398z"/>
				<path style="fill:#FF8400;" d="M285.205,299.746c0.347-0.206,0.945-0.201,1.285,0.008l6.987,4.044      c0.156,0.103,0.253,0.257,0.253,0.396c-0.035,0.003-0.048,0.046-0.097,0.054v0.007c-0.367,0.186-0.961,0.186-1.324-0.007      l-6.929-4.06c-0.188-0.115-0.307-0.262-0.307-0.378c0.029-0.026,0.083-0.051,0.119-0.056L285.205,299.746z"/>
				<polygon style="fill:#BCBEC0;" points="306.463,313.841 309.701,313.983 312.908,317.112 312.888,319.596 312.103,320.061       312.131,317.56 308.89,314.435 305.663,314.288 297.471,309.535 298.272,309.071     "/>
				<polygon style="fill:#939598;" points="308.89,314.435 312.131,317.56 312.103,320.061 308.868,319.42 305.663,315.794       297.471,311.026 297.471,309.535 305.663,314.288     "/>
			</g>
		</g>
		<g>
			<g>
				<path style="opacity:0.3;fill:#0D0D0D;" d="M146.37,362.79l30.885-18.464c1.819-1.077,1.851-3.699,0.058-4.829l-0.087-0.052      c-3.195-2.01-7.23-2.129-10.523-0.314l-30.542,17.449c-2.586,1.421-2.523,5.162,0.113,6.494l0.114,0.055      C139.551,364.734,143.317,364.612,146.37,362.79z"/>
				<g>
					<path style="fill:#939598;" d="M163.708,340.525c-0.668-0.681-0.997-1.455-0.964-2.214l0,0v2.776L163.708,340.525z"/>
					<path style="fill:#828282;" d="M177.445,338.311c0.007,0.031,0.012,0.061,0.012,0.104v-0.104H177.445z"/>
					<path style="fill:#939598;" d="M175.301,341.42c-2.404,1.386-6.057,1.608-8.868,0.676l-19.898,11.492       c1.169,1.326,0.81,2.992-1.121,4.113c-2.409,1.389-6.314,1.389-8.72,0c-1.168-0.681-1.77-1.564-1.8-2.443h-0.009v3.683h0.003       c0.025,0.889,0.624,1.774,1.806,2.448c2.406,1.393,6.311,1.393,8.72,0c1.216-0.694,1.801-1.618,1.791-2.531l0,0v-1.961       l19.229-11.113c2.811,0.935,6.464,0.712,8.868-0.67c1.46-0.85,2.177-1.966,2.152-3.07h0.004v-3.628       C177.457,339.501,176.735,340.584,175.301,341.42z"/>
				</g>
				<polygon style="fill:#A7A9AC;" points="144.369,353.265 139.839,352.56 139.839,356.254 143.854,356.88 144.369,356.58     "/>
				<polygon style="fill:#939598;" points="138.253,357.171 137.736,357.095 136.521,354.473 139.839,352.56 139.839,356.254           "/>
				<polygon style="fill:#939598;" points="144.369,356.58 144.369,353.265 145.582,355.879     "/>
				<polygon style="fill:#A7A9AC;" points="173.97,339.864 168.678,339.052 168.678,335.357 173.97,336.173     "/>
				<polygon style="fill:#939598;" points="168.678,339.052 166.154,340.506 164.798,337.593 168.678,335.357     "/>
				<polygon style="fill:#939598;" points="175.387,339.227 174.038,340.008 173.97,339.864 173.97,336.173     "/>
				<path style="fill:#BCBEC0;" d="M164.888,335.4c-2.407,1.39-2.789,3.503-1.18,5.125l-19.892,11.49      c-2.314-0.676-5.193-0.475-7.123,0.647c-2.41,1.392-2.41,3.643,0,5.038c2.406,1.389,6.311,1.389,8.72,0      c1.931-1.121,2.29-2.787,1.121-4.113l19.898-11.492c2.811,0.933,6.464,0.71,8.868-0.676c2.874-1.654,2.874-4.361,0-6.02      C172.425,333.748,167.766,333.748,164.888,335.4z M145.582,355.879l-3.316,1.915l-4.53-0.699l-1.215-2.622l3.318-1.913      l4.53,0.705L145.582,355.879z M175.387,339.227l-3.87,2.24l-5.298-0.82l-1.421-3.054l3.88-2.235l5.292,0.816L175.387,339.227z"/>
			</g>
			<g>
				<path style="opacity:0.3;fill:#0D0D0D;" d="M148.811,342.142l44.746-26.727c1.816-1.079,1.85-3.701,0.058-4.829l-0.096-0.063      c-3.185-2.005-7.22-2.125-10.516-0.312l-44.401,25.727c-2.587,1.428-2.523,5.158,0.111,6.49l0.111,0.058      C141.991,344.088,145.756,343.966,148.811,342.142z"/>
				<g>
					<path style="fill:#939598;" d="M180.016,311.616c-0.678-0.683-1.002-1.457-0.974-2.213h-0.004v2.776L180.016,311.616z"/>
					<path style="fill:#828282;" d="M193.748,309.403c0,0.028,0.008,0.061,0.008,0.097v-0.097H193.748z"/>
					<path style="fill:#939598;" d="M191.6,312.497c-2.403,1.395-6.049,1.617-8.872,0.684l-33.754,19.757       c1.166,1.336,0.816,3-1.121,4.108c-2.408,1.392-6.313,1.392-8.721,0c-1.166-0.668-1.775-1.555-1.8-2.435h-0.007v3.682h0.007       c0.025,0.893,0.629,1.774,1.8,2.454c2.408,1.386,6.314,1.386,8.721,0c1.212-0.698,1.801-1.613,1.788-2.535l0,0v-1.961       l33.087-19.375c2.822,0.938,6.469,0.71,8.872-0.677c1.465-0.85,2.18-1.958,2.148-3.072h0.008V309.5       C193.755,310.586,193.042,311.674,191.6,312.497z"/>
				</g>
				<polygon style="fill:#A7A9AC;" points="146.813,332.612 142.276,331.916 142.276,335.615 146.292,336.233 146.813,335.938           "/>
				<polygon style="fill:#939598;" points="140.688,336.528 140.175,336.445 138.967,333.837 142.276,331.916 142.276,335.615           "/>
				<polygon style="fill:#939598;" points="146.813,335.938 146.813,332.612 148.025,335.235     "/>
				<polygon style="fill:#A7A9AC;" points="190.272,310.955 184.976,310.138 184.976,306.441 190.272,307.262     "/>
				<polygon style="fill:#939598;" points="184.976,310.138 182.453,311.589 181.097,308.685 184.976,306.441     "/>
				<polygon style="fill:#939598;" points="191.688,310.316 190.34,311.097 190.272,310.955 190.272,307.262     "/>
				<path style="fill:#BCBEC0;" d="M181.188,306.492c-2.404,1.388-2.788,3.496-1.172,5.124l-33.76,19.755      c-2.311-0.678-5.193-0.476-7.124,0.639c-2.412,1.396-2.412,3.648,0,5.036c2.408,1.392,6.314,1.392,8.721,0      c1.937-1.108,2.287-2.772,1.121-4.108l33.754-19.757c2.822,0.934,6.469,0.711,8.872-0.684c2.876-1.654,2.876-4.346,0-6.005      C188.72,304.824,184.061,304.824,181.188,306.492z M148.025,335.235l-3.315,1.91l-4.535-0.7l-1.208-2.608l3.309-1.921      l4.537,0.696L148.025,335.235z M191.688,310.316l-3.878,2.239l-5.294-0.814l-1.419-3.057l3.878-2.243l5.296,0.82      L191.688,310.316z"/>
			</g>
		</g>
		<g>
			<path style="opacity:0.3;" d="M268.172,321.794c11.167,7.693,2.857,23.957-18.558,36.321     c-21.416,12.361-47.828,16.147-58.993,8.453c-11.166-7.695-2.857-23.956,18.559-36.319     C230.596,317.883,257.009,314.1,268.172,321.794z"/>
			<polygon style="fill:#F0C6B4;" points="289.585,142.365 289.746,126.396 300.186,126.634 302.328,143.529 294.95,145.35    "/>
			<path style="fill:#C7A495;" d="M220.669,132.11c0,0,0,8.952-3.169,12.212c0.838,1.492,10.533,9.324,10.533,9.324l11.467,1.676     l5.779-6.758l-10.016-16.828L220.669,132.11z"/>
			<path style="fill:#663F30;" d="M250.207,317.452c2.119,6.977,18.158,11.415,18.766,13.533c0.606,2.113,0.296,6.885-1.072,7.762     c-1.373,0.874-7.352,1.619-11.586,0.132c-4.237-1.5-9.367-4.27-9.367-4.27s-12.234,1.603-15.95-2.63     c-1.496-2.119,0-14.203,0-14.203S248.089,314.462,250.207,317.452z"/>
			<path style="fill:#1C4B94;" d="M231.885,237.354l1.617,39.748c0,0-3.816,8.723-4.394,11.646c-0.576,2.922,0,30.271,0,30.271     s2.863,2.129,10.715,2.129c7.847,0,12.943-3.738,12.943-3.738l0.5-39.29c0,0,9.319-22.492,10.935-49.962     C260.654,229.169,231.885,237.354,231.885,237.354z"/>
			<path style="fill:#663F30;" d="M212.184,339.12c0.4,10.746,6.62,16.01,7.923,18.317c1.306,2.309,3.036,7.466,1.026,8.974     c-9.766,5.894-18.098-1.661-20.509-5.078c-1.678-2.375-2.716-7.813-2.716-7.813s-2.71-1.91-3.815-4.419     c-1.104-2.512,0.5-12.259,0.5-12.259S210.878,338.622,212.184,339.12z"/>
			<path style="fill:#2565C4;" d="M264.201,216.724c0,0-14.913,11.497-28.938,7.985c-11.387-2.853-16.178-8.203-16.178-8.203     s-5.176,5.811-7.808,13.889c-2.632,8.082-2.076,14.915-2.076,14.915l-9.433,37.287c0,0-5.498,11.012-6.971,17.588     c-1.473,6.576-2.104,37.887-2.104,37.887s3.472,6.422,11.363,6.422c7.892,0,12.43-6.963,12.43-6.963s-2.113-26.719,1.242-38.275     c6.898-8.769,23.244-45.679,25.603-51.459c14.481-1.675,22.87-19.64,22.87-19.64V216.724z"/>
			<path style="fill:#292929;" d="M220.563,211.026l-1.477,5.48c0,0,2.005,7.548,18.323,8.925     c16.249,1.372,26.771-8.236,26.771-8.236v-6.637l-25.397,7.437L220.563,211.026z"/>
			<polygon style="fill:#C7C7C7;" points="254.999,222.002 249.466,223.599 249.466,218.1 254.999,216.506    "/>
			<path style="fill:#D45800;" d="M243.445,138.744c0,0,10.44-7.035,23.742,4.785c5.096,4.708,20.508,11.794,20.508,11.794     l0.621-2.61c0,0,7.083,5.094,15.659,1.368c-0.021,0.979,0.28,13.92-9.662,18.394c-3.96,1.785-33.962-12.429-36.325-11.308     C255.627,162.286,243.445,138.744,243.445,138.744z"/>
			<path style="fill:#FF7C1F;" d="M237.727,150.29c-5.594,2.422-17.661-6.653-19.33-7.459c-7.64,6.027-11.199,10.895-16.856,16.012     c-0.604,2.196,11.424,36.292,11.424,36.292s4.628,4.932,6.121,10.899c0.248,3.602-3.543,4.721,0.466,7.456     c4.009,2.736,11.341,6.564,18.176,6.564c22.445,0,24.362-6.066,26.452-9.497c1.54-0.912,0.026-8.304,0-16.331     c-0.049-15.445,3.177-19.315-0.534-35.368c-2.751-8.308-20.696-20.115-20.696-20.115S243.322,147.868,237.727,150.29z"/>
			<g>
				<polygon style="fill:#292929;" points="217.816,324.792 174.871,299.993 174.871,277.36 217.816,302.152     "/>
				<polygon style="fill:#404040;" points="214.951,319.279 214.951,320.393 177.736,298.907 177.736,289.037 178.776,289.635       178.776,298.386     "/>
				<polygon style="fill:#1C1C1C;" points="214.951,310.522 214.951,319.279 178.776,298.386 178.776,289.635     "/>
				<polygon style="fill:#1C1C1C;" points="217.816,305.994 174.871,281.2 174.871,277.36 217.816,302.152     "/>
				<polygon style="fill:#333333;" points="217.816,324.792 217.816,302.152 237.642,290.695 237.642,313.33     "/>
				<polygon style="fill:#212121;" points="217.816,305.994 217.816,302.152 237.642,290.695 237.642,294.53     "/>
				<polygon style="fill:#292929;" points="218.397,303.783 172.69,277.396 172.69,270.103 218.397,296.491     "/>
				<polygon style="fill:#333333;" points="218.397,303.783 218.397,296.491 239.823,284.104 239.823,291.398     "/>
				<polygon style="fill:#454545;" points="218.397,296.491 172.69,270.103 194.116,257.717 239.823,284.104     "/>
				<polygon style="fill:#2B2B2B;" points="226.78,277.42 225.57,278.119 204.246,265.806 192.796,272.419 191.578,271.719       204.246,264.404     "/>
				<polygon style="fill:#2B2B2B;" points="221.396,278.628 212.472,283.781 211.253,283.076 221.396,277.227     "/>
				<polygon style="fill:#171717;" points="225.57,278.119 214.113,284.731 212.472,283.781 221.396,278.628 221.396,277.227       204.583,267.52 194.438,273.373 192.796,272.419 204.246,265.806     "/>
				<polygon style="fill:#E0BC31;" points="196.648,260.434 194.438,261.657 194.438,273.373 196.648,272.147     "/>
				<polygon style="fill:#FFBB00;" points="191.578,257.09 191.578,271.719 194.438,273.37 194.438,261.657 211.253,271.365       211.253,283.076 214.113,284.731 214.113,270.103     "/>
				<polygon style="fill:#D49C00;" points="216.326,283.503 214.113,284.731 214.113,270.103 216.326,268.879     "/>
				<polygon style="fill:#FFC936;" points="216.326,268.879 214.113,270.103 191.578,257.09 193.79,255.869     "/>
				<polygon style="fill:#D49C00;" points="201.26,293.887 201.26,286.592 205.88,283.838 205.88,282.794 199.849,286.348       199.849,294.702     "/>
				<polygon style="fill:#FFBB00;" points="199.849,294.702 199.849,286.348 187.777,279.382 187.777,287.734     "/>
				<polygon style="fill:#FFC936;" points="199.849,286.348 187.777,279.382 193.814,275.826 205.88,282.794     "/>
			</g>
			<path style="fill:#F0C6B4;" d="M248.868,113.561c0.186,2.292,2.282,10.207,2.098,11.093c-0.189,0.883-1.126,1.584-1.126,1.584     s0.081,2.331,0,5.407c-0.086,3.073-2.604,13.981-2.604,13.981s-2.703,2.242-4.753,2.892c-5.408,0.746-14.355-7.087-15.66-8.482     c-1.307-1.4-2.269-4.846-2.269-4.846l-3.791-0.185l-1.212-7.647l4.009-8.017l14.913-7.459     C238.474,111.881,248.45,112.901,248.868,113.561z"/>
			<path style="fill:#663F30;" d="M220.292,138.725c0.87,0.341,4.263-3.535,4.263-3.535s-6.743-4.817-2.611-6.092     c4.131-1.275,6.213,1.989,6.213,1.989s3.263-3.48,2.735-5.842c1.989,0.899,3.48-1.24,3.48-1.24s-0.56-4.103,0.559-5.037     c1.119-0.931,6.99,1.864,11.002,0.465c3.915-2.607,3.518-9.891,2.518-11.849c-1.585-3.092-15.104-7.727-17.681-4.09     c-15.879,1.397-16.066,23.398-16.066,23.398S214.729,135.895,220.292,138.725z"/>
			<path style="fill:#F0C6B4;" d="M192.711,231.51c0,0,3.419,13.552,3.978,21.88c-0.118,1.132,1.49,3.73,1.49,3.73h4.104     c0,0,3.045-1.554,3.852-3.73c-0.744-5.717,0.499-22.994,0.499-22.994L192.711,231.51z"/>
			<path style="fill:#D47D40;" d="M191.849,219.455c0,0-0.967,0.258-1.683,2.092c-0.715,1.832-0.235,10.028,1.048,11.146     c1.281,1.119,4.941,2.736,9.415,2.426c4.472-0.311,6.012-1.923,7.518-3.609c2.362-2.639,1.596-10.331,0.592-11.586     c-1.005-1.256-1.709-1.336-1.709-1.336L191.849,219.455z"/>
			<path style="fill:#D47D40;" d="M289.435,141.527c0,0-1.275-0.128-2.172,1.622c-0.896,1.753-1.243,9.952-0.083,11.196     c1.161,1.243,4.642,3.219,9.125,3.359c4.482,0.14,6.622,0.134,8.29-1.393c2.617-2.388,0.254-11.622-0.62-12.974     c-0.873-1.352-1.565-1.498-1.565-1.498S294.155,145.378,289.435,141.527z"/>
			<path style="fill:#D45800;" d="M212,158.304c-6.464-3.481-11.931,0.622-13.546,4.227c-1.618,3.605-2.488,14.17-1.867,17.775     c0.622,3.602-3.231,27.778-3.231,27.778s-2.137,9.86-1.329,14.146c8.141,6.15,15.872-1.096,15.872-1.096     c1.091-5.286,0.931-11.001,0.931-11.001s7.642-25.231,7.457-33.745C216.516,174.198,218.464,161.786,212,158.304z"/>
			<path style="fill:#A8A8A8;" d="M196.689,253.39c0.373,1.675,6.806,2.983,9.445,0c1.648,3.913,4.691,4.909,6.338,6.835     c1.649,1.928,2.179,6.27,1.123,7.078l-3.382-1.953l-2.458,1.083l0.014,2.919l3.483,2.014v2.487     c-1.18,1.21-5.614,1.025-9.094-1.261c-2.881-1.891-3.631-3.025-4.848-5.404C195.344,263.338,196.689,253.39,196.689,253.39z"/>
			<g>
				<path style="fill:#115063;" d="M286.279,100.529v21.014c0,1.39-1.064,1.712-2.373,0.721l-3.927-2.965      c-1.308-0.988-2.37-2.916-2.37-4.304v-19.47l0.694-0.861l7.28,4.205L286.279,100.529z"/>
				<polygon style="fill:#115063;" points="282.304,124.498 285.78,122.707 285.025,118.923 280.93,120.013     "/>
				<polygon style="fill:#418399;" points="285.522,97.651 282.151,99.392 274.993,95.257 278.366,93.52     "/>
				<path style="fill:#1A3640;" d="M277.219,102.484v5.289c0,0.124,0.086,0.277,0.192,0.334l0.005,0.007      c0.107,0.058,0.193,0.01,0.193-0.112v-5.291c0-0.125-0.087-0.274-0.193-0.338h-0.005      C277.305,102.309,277.219,102.359,277.219,102.484z"/>
				<polygon style="fill:#2F6070;" points="285.522,98.834 286.279,100.529 282.909,102.267 282.214,100.606     "/>
				<path style="fill:#5BBDDB;" d="M296.392,117.271c-0.728,0.278-7.053-5.384-7.053-5.384l-3.06-4.912v-6.446l-3.37,1.738v6.445      l3.059,4.909c0,0,2.537,4.805,6.266,5.382L296.392,117.271z"/>
				<polygon style="fill:#5BBDDB;" points="292.666,113.143 294.236,113.653 302.672,108.783 302.668,108.779 301.103,108.275           "/>
				<g>
					<polygon style="fill:#CF7C00;" points="285.968,110.478 285.968,113.621 289.339,111.887 289.339,108.738      "/>
					<path style="fill:#FFB64A;" d="M286.279,106.975l-3.37,1.737c0,0,1.204,2.132,3.059,1.766l3.371-1.74       C287.597,108.327,286.279,106.975,286.279,106.975z"/>
					<path style="fill:#FF9800;" d="M282.909,108.712v4.173l3.059,1.766v-4.173C284.224,110.064,282.909,108.712,282.909,108.712z"/>
					<path style="fill:#CF7C00;" d="M283.356,109.697v2.952l2.159,1.247v-2.952C284.285,110.657,283.356,109.697,283.356,109.697z"/>
				</g>
				<path style="fill:#25A4C4;" d="M282.909,102.267v21.013c0,1.387-1.063,1.709-2.372,0.718l-3.926-2.961      c-1.313-0.988-2.374-2.914-2.374-4.304V97.262l0.694-0.858l7.282,4.202L282.909,102.267z"/>
				<polygon style="fill:#224652;" points="285.522,97.651 285.522,98.834 285.522,98.834 282.214,100.606 282.151,99.392     "/>
				<polygon style="fill:#2B5866;" points="282.151,99.392 282.214,100.606 274.993,96.437 274.993,96.437 274.993,95.257     "/>
				<g>
					<path style="fill:#1C7C94;" d="M281.135,107.546v8.537c0,1.67-1.171,2.346-2.618,1.511l-0.054-0.029       c-1.445-0.838-2.62-2.872-2.62-4.542v-8.53L281.135,107.546z"/>
					<polygon style="fill:#25A4C4;" points="280.784,110.644 280.784,115.165 276.177,112.506 276.177,107.989      "/>
					<polygon style="fill:#F5F5F5;" points="280.784,107.819 280.784,110.01 276.177,107.351 276.177,105.162      "/>
					<polygon style="fill:#26221F;" points="280.58,114.371 280.58,114.651 276.382,111.457 276.382,111.18      "/>
					<polygon style="fill:#26221F;" points="280.58,113.857 280.58,114.138 276.382,110.94 276.382,110.661      "/>
					<polygon style="fill:#26221F;" points="280.58,113.341 280.58,113.621 276.382,110.428 276.382,110.147      "/>
					<polygon style="fill:#26221F;" points="280.58,112.828 280.58,113.108 276.382,109.911 276.382,109.634      "/>
					<polygon style="fill:#26221F;" points="280.58,112.312 280.58,112.592 276.382,109.397 276.382,109.118      "/>
				</g>
				<polygon style="fill:#366E80;" points="282.214,100.606 282.909,102.267 274.237,97.262 274.932,96.404     "/>
				<path style="fill:#25A4C4;" d="M294.267,118.703c-0.082,0.921-0.849,1.176-1.683,0.558c-2.661-1.961-8.018-6.204-9.675-9.675      c0,0,0,11.482,0,11.575c0-2.257,2.164-0.704,2.741-0.252l0.143,0.118l0,0l0,0c0,0,3.441,3.675,8.079,6.837L294.267,118.703z"/>
				<path style="fill:#2F6170;" d="M282.909,121.161c0-1.176,0.587-1.32,1.233-1.119l-0.023-5.343      c0.502,0.271,0.906,0.028,0.906-0.558c0-0.586-0.408-1.301-0.915-1.604l-0.005-1.097c-0.504-0.638-0.915-1.266-1.196-1.855      C282.909,109.586,282.909,121.068,282.909,121.161z"/>
				<path style="fill:#1C7C94;" d="M293.346,121.448v4.823c-1.874-1.19-4.147-3.335-5.699-4.897      c-1.092-1.099-1.819-2.719-1.819-4.071c0-1.151,0-2.368,0-2.56C286.814,116.414,293.346,121.448,293.346,121.448z"/>
				<path style="fill:#125161;" d="M287.215,117.986c0.239,0.137,0.432,0.472,0.432,0.746c0,0.274-0.192,0.385-0.432,0.248      c-0.238-0.137-0.432-0.472-0.432-0.746C286.783,117.956,286.977,117.846,287.215,117.986z"/>
				<path style="fill:#125161;" d="M291.965,122.136c0.238,0.137,0.432,0.472,0.432,0.746c0,0.277-0.193,0.388-0.432,0.252      c-0.239-0.137-0.431-0.473-0.431-0.75C291.534,122.111,291.726,121.999,291.965,122.136z"/>
				<g>
					<path style="fill:#2B2B2B;" d="M310.488,113.252l-6.386-3.688v-0.388l-1.431-0.826l-8.436,4.871l8.436,21.734l8.532-4.928       l-0.004-0.004c0.205-0.102,0.334-0.338,0.334-0.686v-14.274C311.534,114.396,311.065,113.584,310.488,113.252z"/>
					<path style="fill:#363636;" d="M303.099,119.933v14.274c0,0.666-0.47,0.938-1.048,0.606l-7.814-4.514v-16.688l7.814,4.51       C302.629,118.457,303.099,119.267,303.099,119.933z"/>
					<polygon style="fill:#363636;" points="295.664,114.042 295.664,131.648 294.236,130.823 294.236,113.22      "/>
					<polygon style="fill:#2B2B2B;" points="295.664,120.839 295.664,126.883 294.236,126.057 294.236,120.013      "/>
					<path style="fill:#212121;" d="M295.664,114.438v6.857l0.002,5.091v4.737l0.978,0.567v-4.769       c1.063,0.44,1.875-0.137,1.875-1.406v-0.054c0-1.272-0.814-2.792-1.875-3.577v-6.882L295.664,114.438z"/>
					<polygon style="fill:#474747;" points="296.154,121.333 296.154,126.921 294.348,125.878 294.348,120.29      "/>
					<polygon style="fill:#171717;" points="296.154,121.645 296.154,126.605 294.553,125.681 294.553,120.721      "/>
					<g>
						<path style="fill:#FF9800;" d="M298.066,125.203v0.048c0,1.237-0.871,1.74-1.942,1.119l-1.419-0.818v-4.531l1.419,0.823        C297.195,122.457,298.066,123.963,298.066,125.203z"/>
						<polygon style="fill:#CF7C00;" points="296.201,122.165 296.201,126.188 294.839,125.4 294.839,121.377       "/>
						<polygon style="fill:#CF7C00;" points="296.482,122.569 296.483,126.165 296.302,126.06 296.3,122.467       "/>
						<polygon style="fill:#CF7C00;" points="296.845,122.78 296.845,126.376 296.665,126.271 296.665,122.674       "/>
						<polygon style="fill:#CF7C00;" points="297.208,123.185 297.211,126.396 297.029,126.29 297.029,123.08       "/>
						<polygon style="fill:#CF7C00;" points="297.573,123.65 297.573,126.274 297.394,126.169 297.394,123.545       "/>
					</g>
				</g>
				<g>
					<path style="fill:#FF9800;" d="M284.08,112.761c0.401,0.233,0.728,0.794,0.728,1.256c0,0.462-0.326,0.65-0.728,0.417       c-0.399-0.229-0.724-0.79-0.724-1.256C283.356,112.72,283.681,112.531,284.08,112.761z"/>
					<path style="fill:#CF7C00;" d="M284.08,113.003c0.289,0.163,0.52,0.565,0.52,0.893c0,0.332-0.23,0.466-0.52,0.3       c-0.283-0.165-0.514-0.567-0.516-0.896C283.564,112.971,283.797,112.837,284.08,113.003z"/>
				</g>
				<path style="fill:#25A4C4;" d="M291.824,129.302c0.416,0.28,1.581,1.043,2.412,1.521v-17.17h-0.007      c-0.19-0.115-1.564-0.51-1.564-0.51S291.409,129.024,291.824,129.302z"/>
				<g>
					<g>
						<path style="fill:#333333;" d="M284.246,90.224h-8.099v6.031h0.008c0.044,0.561,0.434,1.116,1.179,1.546        c1.58,0.915,4.143,0.915,5.727,0c0.745-0.43,1.131-0.985,1.177-1.546h0.008V90.224z"/>
						<path style="fill:#4F4F4F;" d="M283.061,91.875c-1.584,0.915-4.147,0.915-5.727,0c-1.584-0.912-1.584-2.394,0-3.303        c1.58-0.915,4.143-0.915,5.727,0C284.643,89.481,284.643,90.963,283.061,91.875z"/>
					</g>
					<g>
						<path style="fill:#424242;" d="M282.654,85.897h-4.915l-1.079,4.113h0.006c0.039,0.494,0.38,0.975,1.028,1.351        c1.383,0.797,3.623,0.797,5.004,0c0.65-0.375,0.99-0.856,1.025-1.351h0.012L282.654,85.897z"/>
						<path style="fill:#696969;" d="M281.934,86.899c-0.959,0.554-2.516,0.554-3.474,0c-0.958-0.552-0.958-1.45,0-2.006        c0.958-0.554,2.515-0.554,3.474,0C282.894,85.449,282.894,86.347,281.934,86.899z"/>
					</g>
					<g>
						<path style="fill:#8F8F8F;" d="M280.955,80.822h-1.518v4.957h0.004c0.006,0.106,0.08,0.211,0.22,0.287        c0.294,0.172,0.775,0.172,1.07,0c0.14-0.076,0.213-0.181,0.223-0.287h0.001V80.822z"/>
						<path style="fill:#C2C2C2;" d="M280.731,81.135c-0.295,0.169-0.776,0.169-1.07,0c-0.298-0.171-0.298-0.449,0-0.622        c0.294-0.171,0.775-0.171,1.07,0C281.028,80.686,281.028,80.963,280.731,81.135z"/>
					</g>
					<g>
						<path style="fill:#8F8F8F;" d="M280.656,79.659h-0.92l-0.203,1.122l0,0c0.01,0.096,0.073,0.188,0.194,0.255        c0.257,0.153,0.68,0.153,0.938,0c0.123-0.067,0.186-0.159,0.191-0.255l0,0L280.656,79.659z"/>
						<path style="fill:#C2C2C2;" d="M280.521,79.847c-0.179,0.105-0.471,0.105-0.653,0c-0.175-0.105-0.175-0.271,0-0.376        c0.183-0.105,0.475-0.105,0.653,0C280.702,79.576,280.702,79.742,280.521,79.847z"/>
					</g>
				</g>
			</g>
			<path style="fill:#A8A8A8;" d="M285.025,123.825c-1.119-1.562-2.919-5.744-1.061-6.771c1.862-1.023,6.248,1.237,6.212,2.703     c-0.036,1.466-3.897,1.785-2.295,3.306c0.604,0.564,3.96,3.332,3.96,3.332l-0.104,1.055l-2.089-0.281     C289.649,127.169,286.146,125.392,285.025,123.825z"/>
			<path style="fill:#A8A8A8;" d="M284.246,109.586c-0.141-2.735,3.892-5.168,5.093-5.094c2.458-0.019,2.399,2.483,2.399,2.483     l0.104,2.659l3.407,1.941l-2.583,1.568l-0.433,5.86c0,0-0.013,1.058-0.495,1.434c-0.479,0.374-0.768,0.285-1.496,0.285     c-0.728,0.006-4.144-2.666-4.72-4.425c-0.577-1.76-0.007-3.143,1.692-5.113c1.271-1.026,2.124-1.036,2.124-1.036v-1.409     C289.339,108.738,284.296,110.644,284.246,109.586z"/>
			<g>
				<polygon style="fill:#1A1A1A;" points="219.335,124.109 214.73,126.153 214.452,120.781 217.38,119.232     "/>
				<path style="fill:#E88A00;" d="M257.701,122.474c-1.086-3.404-5.636-5.486-5.636-5.486l-35.567-4.023      c0,0-1.482,1.154-2.421,3.522c-0.14,0.306-0.35,0.74-0.515,1.256h-0.235l0.012,1.489c0.056,1.485,0.904,3.423,3.932,5.25      c5.151,2.983,10.018,3.391,10.018,3.391s7.114,5.582,14.757,5.044c0.759,0.156,13.23-0.115,15.735-7.791      c0.078-0.303,0.126-0.599,0.146-0.89h0.008L257.701,122.474z"/>
				<path style="fill:#FFA41F;" d="M216.498,111.588c0,0-1.482,1.153-2.421,3.525c-0.577,1.262-2.412,4.613,3.194,7.995      c5.151,2.984,10.018,3.392,10.018,3.392s7.396,6.197,14.757,6.423c0.759,0.16,13.23-0.111,15.735-7.791      c1.266-4.943-5.717-9.518-5.717-9.518L216.498,111.588z"/>
				<path style="fill:#FF9800;" d="M214.806,115.732c0.042-0.518,0.961-19.851,18.76-18.145      c17.693,1.689,19.541,18.584,19.24,21.571c-2.679,7.616-14.523,6.981-14.523,6.981S213.607,126.494,214.806,115.732z"/>
				<path style="fill:#FFBE5E;" d="M233.084,125.932c-0.001-0.178-0.003-4.453,1.332-6.595c1.087-1.736,4.108-3.583,4.879-4.023      c-10.123-15.543-22.495-6.27-23.206-6.091c0,0,13.17-11.284,24.118,6.185l0.096,0.335l-0.311,0.159      c-0.027,0.01-3.649,1.951-4.854,3.89c-1.211,1.935-1.209,6.165-1.209,6.204L233.084,125.932z"/>
				<path style="fill:#FFBE5E;" d="M222.329,100.163c26.147,0.822,22.089,25.371,22.089,25.371l1.04-0.273      C245.458,125.26,249.741,100.673,222.329,100.163z"/>
			</g>
		</g>
		<g>
			<path style="opacity:0.3;" d="M336.057,354.729c-5.143-2.977-7.969-6.993-7.96-11.352c0-4.348,2.823-8.359,7.96-11.327     c4.861-2.825,11.319-4.373,18.164-4.373c6.834,0,13.288,1.548,18.159,4.373c5.133,2.968,7.956,6.994,7.956,11.343     c0,4.343-2.823,8.359-7.956,11.336c-4.871,2.809-11.325,4.358-18.159,4.358C347.376,359.088,340.918,357.538,336.057,354.729z"/>
			<path style="fill:#A3A3A3;" d="M379.003,303.557v39.837h-0.124c0,3.641-2.421,7.272-7.225,10.059     c-9.628,5.567-25.252,5.567-34.873,0c-4.819-2.786-7.221-6.418-7.221-10.059v-39.837H379.003z"/>
			<path style="fill:#D63A3A;" d="M371.654,325.525c-9.628,5.56-25.252,5.56-34.873,0c-4.819-2.8-7.221-6.425-7.221-10.065v19.855     c0,3.646,2.401,7.301,7.221,10.065c9.621,5.559,25.245,5.559,34.873,0V325.525z"/>
			<path style="fill:#BCBEC0;" d="M336.781,313.625c9.621,5.558,25.245,5.558,34.873,0c9.629-5.56,9.618-14.568,0-20.126     c-9.628-5.559-25.252-5.559-34.873,0C327.144,299.057,327.153,308.065,336.781,313.625z"/>
			<path style="fill:#939598;" d="M336.086,305.379c0.619-2.106,2.326-4.115,5.121-5.717c7.173-4.147,18.834-4.147,26.016,0     c2.798,1.602,4.508,3.61,5.116,5.717c0.985-3.286-0.718-6.805-5.116-9.336c-7.182-4.152-18.843-4.152-26.016,0     C336.813,298.574,335.097,302.093,336.086,305.379z"/>
			<path style="fill:#A7A9AC;" d="M341.207,299.662c7.173-4.147,18.834-4.147,26.016,0c2.798,1.602,4.508,3.61,5.116,5.717     c-0.536,1.802-1.896,3.548-4.071,5.036c-0.334,0.232-0.675,0.445-1.045,0.664c-7.182,4.13-18.843,4.13-26.016,0     c-0.371-0.219-0.711-0.432-1.05-0.664c-2.184-1.488-3.528-3.234-4.071-5.036C336.705,303.272,338.412,301.264,341.207,299.662z"/>
		</g>
		<g>
			<path style="opacity:0.3;" d="M375.099,392.008c-6.11,0-11.881-1.384-16.235-3.897c-4.589-2.659-7.114-6.251-7.114-10.135     c0-3.888,2.525-7.488,7.114-10.143c4.355-2.524,10.125-3.909,16.235-3.909c6.121,0,11.895,1.385,16.243,3.909     c4.592,2.654,7.117,6.24,7.117,10.13c0.007,3.897-2.52,7.488-7.117,10.147C386.993,390.624,381.22,392.008,375.099,392.008z"/>
			<path style="fill:#A3A3A3;" d="M352.94,342.358v35.618h0.111c0,3.255,2.164,6.503,6.459,8.994c8.608,4.978,22.579,4.978,31.183,0     c4.308-2.491,6.456-5.739,6.456-8.994v-35.618H352.94z"/>
			<path style="fill:#FF9800;" d="M359.511,362.001c8.608,4.969,22.579,4.969,31.183,0c4.308-2.505,6.456-5.746,6.456-9.001v17.752     c0,3.261-2.148,6.53-6.456,9.001c-8.604,4.969-22.574,4.969-31.183,0V362.001z"/>
			<path style="fill:#BCBEC0;" d="M390.693,351.358c-8.604,4.97-22.574,4.97-31.183,0s-8.599-13.024,0-17.995     c8.608-4.971,22.579-4.971,31.183,0C399.31,338.334,399.303,346.389,390.693,351.358z"/>
			<path style="fill:#939598;" d="M391.315,343.985c-0.555-1.883-2.081-3.681-4.579-5.11c-6.415-3.708-16.841-3.708-23.262,0     c-2.502,1.43-4.031,3.228-4.575,5.11c-0.881-2.938,0.643-6.084,4.575-8.347c6.421-3.712,16.847-3.712,23.262,0     C390.666,337.901,392.199,341.048,391.315,343.985z"/>
			<path style="fill:#A7A9AC;" d="M386.736,338.875c-6.415-3.708-16.841-3.708-23.262,0c-2.502,1.43-4.031,3.228-4.575,5.11     c0.479,1.613,1.694,3.174,3.641,4.504c0.3,0.21,0.604,0.397,0.935,0.594c6.421,3.693,16.847,3.693,23.262,0     c0.331-0.196,0.636-0.384,0.939-0.594c1.951-1.33,3.153-2.891,3.641-4.504C390.761,342.103,389.234,340.305,386.736,338.875z"/>
		</g>
		<g>
			<path style="opacity:0.2;" d="M346.29,220.814c3.02-1.693,6.754-1.672,9.779,0.051l39.431,22.667     c1.784,1.051,1.784,3.622-0.026,4.647l-0.085,0.052c-3.035,1.709-6.761,1.693-9.758-0.052l-39.458-22.682     c-1.791-1.024-1.765-3.607,0.025-4.633L346.29,220.814z"/>
			<path style="fill:#0F0F0F;" d="M347.022,218.46c0.397,0.24,0.72,0.804,0.72,1.272c0,0.468-0.322,0.661-0.728,0.406     c-0.417-0.211-0.724-0.792-0.724-1.261C346.29,218.411,346.597,218.241,347.022,218.46z"/>
			<path style="fill:#0F0F0F;" d="M348.265,216.936l2.204,1.286l-0.041,3.423l-1.166-0.684v-2.076l-2.176-1.276     c-0.407-0.22-0.769-0.257-1.032-0.089l1.178-0.688C347.491,216.692,347.86,216.709,348.265,216.936z"/>
			<path style="fill:#1F1F1F;" d="M345.598,218.46v0.036c0,0.939,0.662,2.072,1.461,2.543l2.188,1.297l0.016-3.451l-2.176-1.276     C346.277,217.164,345.598,217.526,345.598,218.46z M346.29,218.878c0-0.467,0.307-0.637,0.732-0.418     c0.397,0.24,0.72,0.804,0.72,1.272c0,0.468-0.322,0.661-0.728,0.406C346.597,219.928,346.29,219.347,346.29,218.878z"/>
			<polygon style="fill:#0F0F0F;" points="346.027,217.526 346.027,217.526 346.027,217.526    "/>
			<path style="fill:#303030;" d="M348.717,219.418c1.209-2.134,3.93-2.834,6.059-1.603l15.567,9.079l-4.515,7.745l-15.561-9.082     c-2.125-1.224-2.847-3.934-1.586-6.064L348.717,219.418z"/>
			<path style="fill:#474747;" d="M368.093,227.105c1.765-1.014,3.184-0.188,3.154,1.818c0,2.045-1.419,4.507-3.185,5.497     c-1.772,0.997-3.188,0.176-3.157-1.835C364.905,230.547,366.313,228.102,368.093,227.105z"/>
			<path style="fill:#303030;" d="M368.89,227.553c0.878-0.51,1.692-0.54,2.265-0.2l1.987,1.144l-4.515,7.774l-1.988-1.156     c-0.58-0.355-0.935-1.068-0.935-2.056C365.704,231.028,367.135,228.559,368.89,227.553z"/>
			<path style="fill:#474747;" d="M370.9,228.732c1.762-1.011,3.181-0.178,3.159,1.828c0,2.033-1.419,4.489-3.181,5.498     c-1.747,1.004-3.185,0.178-3.185-1.843C367.693,232.186,369.145,229.74,370.9,228.732z"/>
			<polygon style="fill:#BCBEC0;" points="390.012,242.396 392.608,242.688 395.133,245.471 395.133,246.628 394.32,247.105      394.32,245.946 391.76,243.156 389.192,242.864 370.582,231.941 371.431,231.46    "/>
			<g>
				<polygon style="fill:#939598;" points="391.76,243.156 394.32,245.946 394.32,247.105 391.732,246.884 389.192,244.211       370.582,233.285 370.582,231.941 389.192,242.864     "/>
			</g>
			<path style="fill:#BA6000;" d="M351.646,221.151c0.217-0.409,0.692-0.511,1.096-0.294l0.357,0.2     c-0.395-0.222-0.879-0.09-1.092,0.308h-0.033c-0.198,0.377-0.089,0.87,0.31,1.093l-0.347-0.19     c-0.412-0.244-0.533-0.722-0.291-1.111V221.151z"/>
			<path style="fill:#FF8400;" d="M352.008,221.365c0.213-0.397,0.696-0.529,1.092-0.308l10.321,6.024     c0.381,0.224,0.505,0.722,0.288,1.094c-0.228,0.383-0.734,0.523-1.107,0.3l-10.317-6.018c-0.398-0.223-0.508-0.716-0.31-1.093     H352.008z"/>
			<path style="fill:#BA6000;" d="M351.501,224.236c0,0.035,0,0.098,0,0.111v0.017c0,0.448,0.305,0.992,0.665,1.214l10.69,6.225     c0.202,0.115,0.359,0.131,0.479,0.043c-0.044,0.367-0.324,0.504-0.67,0.32l-10.69-6.26c-0.395-0.215-0.719-0.745-0.719-1.191     l0.017-0.026C351.272,224.473,351.395,224.308,351.501,224.236z"/>
			<path style="fill:#FF8400;" d="M362.664,230.516c0.393,0.228,0.699,0.762,0.699,1.201v0.036c0,0.021,0,0.077-0.029,0.093     c-0.119,0.088-0.276,0.072-0.479-0.043l-10.69-6.225c-0.36-0.222-0.665-0.766-0.665-1.214v-0.017c0-0.014,0-0.076,0-0.111     c0.132-0.059,0.305-0.04,0.474,0.066L362.664,230.516z"/>
			<path style="fill:#BA6000;" d="M354.54,219.12c0.398-0.224,1.008-0.224,1.382,0.021l10.688,6.216     c0.365,0.2,0.379,0.524,0.083,0.733c0-0.137-0.083-0.288-0.28-0.392l-10.659-6.234c-0.399-0.206-1.042-0.227-1.418,0v0.005     c-0.037,0.024-0.057,0.031-0.078,0.084c-0.025-0.167,0.078-0.316,0.283-0.408V219.12z"/>
			<path style="fill:#FF8400;" d="M354.335,219.465c0.376-0.227,1.018-0.206,1.418,0l10.659,6.234     c0.197,0.104,0.28,0.255,0.28,0.392c-0.026,0.036-0.039,0.058-0.083,0.076v0.012c-0.399,0.204-1.026,0.204-1.396-0.03     l-10.674-6.218c-0.205-0.132-0.283-0.256-0.283-0.377c0.021-0.053,0.041-0.06,0.078-0.084V219.465z"/>
		</g>
		<g>
			<g>
				<polygon style="fill:#363636;" points="354.678,268.331 347.156,263.986 354.918,259.525 354.918,259.525 362.445,263.865           "/>
				<polygon style="fill:#1A1A1A;" points="362.445,266.287 354.678,270.744 354.678,268.331 362.445,263.865     "/>
				<polygon style="fill:#303030;" points="354.678,270.744 347.156,266.403 347.156,266.403 347.156,263.986 347.156,263.986       354.678,268.331 354.678,270.744     "/>
			</g>
			<g>
				<polygon style="fill:#363636;" points="410.37,230.625 402.844,226.279 410.607,221.819 410.607,221.819 418.136,226.165           "/>
				<polygon style="fill:#1A1A1A;" points="418.136,228.581 410.37,233.037 410.37,230.625 418.136,226.165     "/>
				<polygon style="fill:#303030;" points="410.37,233.037 402.844,228.697 402.844,228.697 402.844,226.279 402.844,226.279       410.37,230.625 410.37,233.037     "/>
			</g>
			<g>
				<polygon style="fill:#363636;" points="334.611,230.621 327.083,226.273 334.845,221.816 334.845,221.816 342.372,226.159           "/>
				<polygon style="fill:#1A1A1A;" points="342.372,228.578 334.611,233.034 334.611,230.621 342.372,226.159     "/>
				<polygon style="fill:#303030;" points="334.611,233.034 327.083,228.691 327.083,228.691 327.083,226.273 327.083,226.273       334.611,230.621 334.611,233.034     "/>
			</g>
			<g>
				<path style="fill:#ADADAD;" d="M372.378,182.486c-6.037,0-11.76-1.389-16.111-3.904c-4.916-2.833-7.618-6.803-7.618-11.165      c0-4.367,2.702-8.335,7.62-11.169c4.354-2.514,10.078-3.9,16.109-3.9c6.034,0,11.755,1.386,16.112,3.9      c4.916,2.834,7.621,6.802,7.621,11.169c0,4.362-2.709,8.331-7.621,11.168C384.139,181.097,378.414,182.486,372.378,182.486z       M372.378,154.912c-5.587,0-10.856,1.264-14.829,3.557c-4.088,2.36-6.339,5.538-6.339,8.949c0,3.41,2.251,6.585,6.339,8.945      c3.967,2.295,9.233,3.556,14.829,3.556s10.859-1.261,14.831-3.556c4.089-2.36,6.34-5.536,6.34-8.945      c0-3.41-2.251-6.589-6.34-8.949C383.237,156.176,377.969,154.912,372.378,154.912z"/>
				<path style="fill:#ADADAD;" d="M410.441,227.426c-0.567,0-1.086-0.381-1.234-0.951L376.798,104.65      c-0.181-0.685,0.224-1.386,0.906-1.571c0.685-0.181,1.388,0.226,1.567,0.91l32.409,121.824c0.182,0.682-0.223,1.384-0.91,1.567      C410.663,227.41,410.552,227.426,410.441,227.426z"/>
				<path style="fill:#ADADAD;" d="M334.614,227.429c-0.108,0-0.217-0.013-0.325-0.041c-0.684-0.183-1.094-0.884-0.918-1.568      l33.282-127.096c0.179-0.685,0.88-1.091,1.565-0.913c0.685,0.178,1.095,0.88,0.916,1.561l-33.279,127.1      C335.699,227.048,335.184,227.429,334.614,227.429z"/>
				<path style="fill:#ADADAD;" d="M354.889,265.136c-0.041,0-0.087,0-0.132-0.009c-0.704-0.071-1.216-0.702-1.144-1.404      l16.056-154.329c0.07-0.705,0.702-1.22,1.405-1.141c0.706,0.073,1.218,0.702,1.145,1.407l-16.055,154.326      C356.097,264.644,355.538,265.136,354.889,265.136z"/>
			</g>
			<g>
				<polygon style="fill:#1C1C1C;" points="377.132,91.154 390.987,83.463 391.632,105.095 377.132,112.625     "/>
				<g>
					<path style="fill:#4D4D4D;" d="M385.151,94.795l-3.938-2.304l0,0c-0.638-0.372-1.517-0.319-2.491,0.246       c-1.947,1.12-3.525,3.854-3.521,6.098c0,1.123,0.397,1.907,1.035,2.277l0,0l3.939,2.302L385.151,94.795z"/>
					<path style="fill:#363636;" d="M379.144,101.138c-0.006-2.245,1.57-4.979,3.518-6.094c1.939-1.126,3.519-0.216,3.522,2.03       c0,2.242-1.58,4.974-3.522,6.096C380.717,104.29,379.138,103.381,379.144,101.138z"/>
					<path style="fill:#1F1F1F;" d="M385.262,97.655c0,1.6-1.129,3.553-2.516,4.354c-0.988,0.576-1.845,0.404-2.257-0.318       c0.354,0.011,0.748-0.1,1.164-0.339c1.392-0.804,2.521-2.758,2.521-4.36c0-0.465-0.094-0.848-0.263-1.135       C384.714,95.88,385.262,96.539,385.262,97.655z"/>
					<path style="fill:#FF1F1F;" d="M384.174,96.991c0,1.603-1.129,3.557-2.521,4.36c-0.416,0.24-0.81,0.351-1.164,0.339       c-0.164-0.29-0.258-0.67-0.258-1.135c0-1.605,1.123-3.559,2.515-4.357c0.422-0.24,0.816-0.354,1.165-0.342       C384.08,96.143,384.174,96.526,384.174,96.991z"/>
				</g>
				<polygon style="fill:#FF9800;" points="375.81,117.339 352.318,103.767 352.318,76.103 375.81,89.674     "/>
				<path style="fill:#CF7C00;" d="M375.81,89.674v27.665l16.927-9.771V79.904L375.81,89.674z M388.25,102.896l-8.621,4.974V93.213      l8.621-4.975V102.896z"/>
				<polygon style="fill:#FF9800;" points="389.958,87.253 389.958,104.127 379.629,110.086 379.629,107.87 388.25,102.896       388.25,88.239     "/>
				<polygon style="fill:#FFB445;" points="392.736,79.904 375.81,89.674 352.318,76.103 369.248,66.332     "/>
				<polygon style="fill:#9C5D00;" points="373.938,74.482 371.827,75.699 368.967,74.053 364.61,76.564 360.995,74.482       367.466,70.739     "/>
				<polygon style="fill:#2565C4;" points="371.827,75.699 367.466,78.22 364.61,76.564 368.967,74.053     "/>
			</g>
		</g>
		<g>
			<g>
				<path style="opacity:0.3;" d="M60.205,230.024L40.37,218.612l123.881-71.495l19.83,11.415l-1.235,0.714L60.205,230.024z       M43.651,218.612l16.554,9.506l120.59-69.586l-16.542-9.524L43.651,218.612z"/>
				<polygon style="fill:#734736;" points="42.012,216.574 60.205,227.026 182.439,156.505 164.254,146.029     "/>
				<polygon style="fill:#F5CB95;" points="42.012,218.612 60.205,229.077 60.205,227.026 42.012,216.574     "/>
				<polygon style="fill:#D1AD7F;" points="60.205,229.077 182.439,158.527 182.439,156.505 60.205,227.026     "/>
			</g>
			<g>
				<polygon style="fill:#734736;" points="42.012,212.576 60.205,223.038 182.439,152.513 164.254,142.036     "/>
				<polygon style="fill:#F5CB95;" points="42.012,214.602 60.205,225.085 60.205,223.038 42.012,212.576     "/>
				<polygon style="fill:#D1AD7F;" points="60.205,225.085 182.439,154.544 182.439,152.513 60.205,223.038     "/>
			</g>
			<g>
				<polygon style="fill:#734736;" points="40.37,210.445 58.563,220.912 180.795,150.391 162.612,139.914     "/>
				<polygon style="fill:#F5CB95;" points="40.37,212.492 58.563,222.952 58.563,220.912 40.37,210.445     "/>
				<polygon style="fill:#D1AD7F;" points="58.563,222.952 180.795,152.407 180.795,150.391 58.563,220.912     "/>
			</g>
			<g>
				<polygon style="fill:#734736;" points="40.917,206.622 59.106,217.098 181.344,146.558 163.156,136.086     "/>
				<polygon style="fill:#F5CB95;" points="40.917,208.653 59.106,219.13 59.106,217.098 40.917,206.622     "/>
				<polygon style="fill:#D1AD7F;" points="59.106,219.13 181.344,148.584 181.344,146.558 59.106,217.098     "/>
			</g>
			<g>
				<polygon style="fill:#734736;" points="39.686,202.674 57.876,213.131 180.114,142.59 161.923,132.123     "/>
				<polygon style="fill:#F5CB95;" points="39.686,204.7 57.876,215.167 57.876,213.131 39.686,202.674     "/>
				<polygon style="fill:#D1AD7F;" points="57.876,215.167 180.114,144.616 180.114,142.59 57.876,213.131     "/>
			</g>
			<g>
				<polygon style="fill:#734736;" points="40.917,199.165 59.106,209.632 181.344,139.096 163.156,128.629     "/>
				<polygon style="fill:#F5CB95;" points="40.917,201.206 59.106,211.664 59.106,209.632 40.917,199.165     "/>
				<polygon style="fill:#D1AD7F;" points="59.106,211.664 181.344,141.123 181.344,139.096 59.106,209.632     "/>
			</g>
			<g>
				<path style="opacity:0.3;" d="M62.541,251.118l-19.832-11.41l123.877-71.488l19.832,11.409l-1.23,0.715L62.541,251.118z       M45.989,239.708l16.546,9.515l120.603-69.594l-16.553-9.523L45.989,239.708z"/>
				<polygon style="fill:#734736;" points="44.348,237.662 62.541,248.134 184.773,177.604 166.585,167.132     "/>
				<polygon style="fill:#F5CB95;" points="44.348,239.708 62.541,250.159 62.541,248.134 44.348,237.662     "/>
				<polygon style="fill:#D1AD7F;" points="62.541,250.159 184.773,179.623 184.773,177.604 62.541,248.134     "/>
			</g>
			<g>
				<polygon style="fill:#734736;" points="48.153,234.439 66.346,244.909 188.581,174.369 170.394,163.892     "/>
				<polygon style="fill:#F5CB95;" points="48.153,236.475 66.346,246.936 66.346,244.909 48.153,234.439     "/>
				<polygon style="fill:#D1AD7F;" points="66.346,246.936 188.581,176.4 188.581,174.369 66.346,244.909     "/>
			</g>
			<g>
				<polygon style="fill:#734736;" points="48.153,231.403 66.346,241.874 188.581,171.335 170.394,160.857     "/>
				<polygon style="fill:#F5CB95;" points="48.153,233.439 66.346,243.902 66.346,241.874 48.153,231.403     "/>
				<polygon style="fill:#D1AD7F;" points="66.346,243.902 188.581,173.351 188.581,171.335 66.346,241.874     "/>
			</g>
		</g>
	</g>
</g>
</svg>
